<svg preserveAspectRatio="none" width="100%" height="100%" overflow="visible" style="display: block;" viewBox="0 0 38 38" fill="none" xmlns="http://www.w3.org/2000/svg">
<g id="Expand">
<path id="Vector" d="M6.32096 5.0543C6.1398 5.05434 5.96075 5.09323 5.7959 5.16836C5.63105 5.24349 5.48423 5.3531 5.36535 5.48981C5.24647 5.62651 5.15829 5.78712 5.10676 5.9608C5.05524 6.13448 5.04157 6.3172 5.06667 6.49661V12.6667C5.06429 12.8345 5.0953 13.0012 5.15789 13.1569C5.22048 13.3127 5.31341 13.4544 5.43126 13.574C5.54912 13.6935 5.68956 13.7884 5.84442 13.8532C5.99928 13.918 6.16547 13.9514 6.33333 13.9514C6.5012 13.9514 6.66739 13.918 6.82225 13.8532C6.97711 13.7884 7.11755 13.6935 7.2354 13.574C7.35326 13.4544 7.44618 13.3127 7.50877 13.1569C7.57136 13.0012 7.60237 12.8345 7.6 12.6667V9.39115L13.0378 14.8289C13.1545 14.9505 13.2943 15.0475 13.449 15.1144C13.6037 15.1813 13.7702 15.2166 13.9387 15.2183C14.1072 15.22 14.2744 15.1881 14.4304 15.1244C14.5864 15.0607 14.7282 14.9665 14.8473 14.8473C14.9665 14.7282 15.0607 14.5864 15.1244 14.4304C15.1881 14.2744 15.22 14.1072 15.2183 13.9387C15.2166 13.7702 15.1813 13.6037 15.1144 13.449C15.0475 13.2943 14.9505 13.1545 14.8289 13.0378L9.39115 7.6H12.6667C12.8345 7.60237 13.0012 7.57136 13.1569 7.50877C13.3127 7.44618 13.4544 7.35326 13.574 7.2354C13.6935 7.11755 13.7884 6.97711 13.8532 6.82225C13.918 6.66739 13.9514 6.5012 13.9514 6.33333C13.9514 6.16547 13.918 5.99928 13.8532 5.84442C13.7884 5.68956 13.6935 5.54912 13.574 5.43126C13.4544 5.31341 13.3127 5.22048 13.1569 5.15789C13.0012 5.0953 12.8345 5.06429 12.6667 5.06667H6.48177C6.42849 5.05913 6.37478 5.055 6.32096 5.0543ZM31.6419 5.0543C31.5947 5.05579 31.5477 5.05992 31.5009 5.06667H25.3333C25.1655 5.06429 24.9988 5.0953 24.8431 5.15789C24.6873 5.22048 24.5456 5.31341 24.426 5.43126C24.3065 5.54912 24.2116 5.68956 24.1468 5.84442C24.082 5.99928 24.0486 6.16547 24.0486 6.33333C24.0486 6.5012 24.082 6.66739 24.1468 6.82225C24.2116 6.97711 24.3065 7.11755 24.426 7.2354C24.5456 7.35326 24.6873 7.44618 24.8431 7.50877C24.9988 7.57136 25.1655 7.60237 25.3333 7.6H28.6089L23.1711 13.0378C23.0495 13.1545 22.9525 13.2943 22.8856 13.449C22.8187 13.6037 22.7834 13.7702 22.7817 13.9387C22.78 14.1072 22.8119 14.2744 22.8756 14.4304C22.9393 14.5864 23.0335 14.7282 23.1527 14.8473C23.2718 14.9665 23.4136 15.0607 23.5696 15.1244C23.7256 15.1881 23.8928 15.22 24.0613 15.2183C24.2298 15.2166 24.3963 15.1813 24.551 15.1144C24.7057 15.0475 24.8455 14.9505 24.9622 14.8289L30.4 9.39115V12.6667C30.3976 12.8345 30.4286 13.0012 30.4912 13.1569C30.5538 13.3127 30.6467 13.4544 30.7646 13.574C30.8825 13.6935 31.0229 13.7884 31.1778 13.8532C31.3326 13.918 31.4988 13.9514 31.6667 13.9514C31.8345 13.9514 32.0007 13.918 32.1556 13.8532C32.3104 13.7884 32.4509 13.6935 32.5687 13.574C32.6866 13.4544 32.7795 13.3127 32.8421 13.1569C32.9047 13.0012 32.9357 12.8345 32.9333 12.6667V6.49414C32.9586 6.31177 32.9437 6.1261 32.8899 5.95004C32.836 5.77399 32.7445 5.61179 32.6215 5.47474C32.4986 5.33768 32.3473 5.22907 32.1781 5.15646C32.0089 5.08385 31.826 5.04898 31.6419 5.0543ZM13.9086 22.7876C13.5795 22.7974 13.2672 22.935 13.0378 23.1711L7.6 28.6089V25.3333C7.60232 25.1639 7.57061 24.9957 7.50675 24.8387C7.44289 24.6817 7.34818 24.5391 7.22822 24.4194C7.10826 24.2996 6.9655 24.2052 6.80839 24.1416C6.65127 24.0781 6.483 24.0467 6.31354 24.0493C5.97803 24.0546 5.65831 24.1927 5.42455 24.4335C5.19078 24.6742 5.06207 24.9978 5.06667 25.3333V31.4737C5.03311 31.6729 5.04768 31.8772 5.10916 32.0697C5.17064 32.2621 5.27725 32.437 5.4201 32.5799C5.56295 32.7227 5.73788 32.8294 5.93032 32.8908C6.12275 32.9523 6.32709 32.9669 6.5263 32.9333H12.6667C12.8345 32.9357 13.0012 32.9047 13.1569 32.8421C13.3127 32.7795 13.4544 32.6866 13.574 32.5687C13.6935 32.4509 13.7884 32.3104 13.8532 32.1556C13.918 32.0007 13.9514 31.8345 13.9514 31.6667C13.9514 31.4988 13.918 31.3326 13.8532 31.1777C13.7884 31.0229 13.6935 30.8824 13.574 30.7646C13.4544 30.6467 13.3127 30.5538 13.1569 30.4912C13.0012 30.4286 12.8345 30.3976 12.6667 30.4H9.39115L14.8289 24.9622C15.0119 24.7843 15.137 24.5553 15.1876 24.3051C15.2382 24.0549 15.212 23.7952 15.1126 23.5601C15.0131 23.3251 14.8449 23.1255 14.6301 22.9877C14.4152 22.8498 14.1637 22.7801 13.9086 22.7876ZM24.0543 22.7876C23.8023 22.7877 23.5561 22.8629 23.3471 23.0037C23.1381 23.1444 22.9758 23.3443 22.8809 23.5777C22.7861 23.8112 22.7631 24.0676 22.8148 24.3143C22.8665 24.5609 22.9905 24.7865 23.1711 24.9622L28.6089 30.4H25.3333C25.1655 30.3976 24.9988 30.4286 24.8431 30.4912C24.6873 30.5538 24.5456 30.6467 24.426 30.7646C24.3065 30.8824 24.2116 31.0229 24.1468 31.1777C24.082 31.3326 24.0486 31.4988 24.0486 31.6667C24.0486 31.8345 24.082 32.0007 24.1468 32.1556C24.2116 32.3104 24.3065 32.4509 24.426 32.5687C24.5456 32.6866 24.6873 32.7795 24.8431 32.8421C24.9988 32.9047 25.1655 32.9357 25.3333 32.9333H31.4737C31.6729 32.9669 31.8773 32.9523 32.0697 32.8908C32.2621 32.8294 32.4371 32.7227 32.5799 32.5799C32.7227 32.437 32.8294 32.2621 32.8908 32.0697C32.9523 31.8772 32.9669 31.6729 32.9333 31.4737V25.3333C32.9357 25.1639 32.9039 24.9957 32.8401 24.8387C32.7762 24.6817 32.6815 24.5391 32.5616 24.4194C32.4416 24.2996 32.2988 24.2052 32.1417 24.1416C31.9846 24.0781 31.8163 24.0467 31.6469 24.0493C31.3114 24.0546 30.9916 24.1927 30.7579 24.4335C30.5241 24.6742 30.3954 24.9978 30.4 25.3333V28.6089L24.9622 23.1711C24.8442 23.0498 24.703 22.9533 24.5471 22.8874C24.3911 22.8216 24.2236 22.7876 24.0543 22.7876Z" fill="var(--fill-0, white)"/>
</g>
</svg>
