<svg preserveAspectRatio="none" width="100%" height="100%" overflow="visible" style="display: block;" viewBox="0 0 175.472 50" fill="none" xmlns="http://www.w3.org/2000/svg">
<g id="Frame 279">
<path id="Vector" d="M52.2978 42.9268C52.0978 43.1598 51.8979 43.3928 51.6064 43.7323C50.8372 41.681 50.0869 39.6931 49.3459 37.7017C46.9294 31.2076 44.5184 24.7114 42.0961 18.2193C41.9619 17.8595 41.7453 17.5303 41.4875 17.0781C41.0489 15.6847 40.6898 14.4 40.3307 13.1153C40.2288 13.1429 40.127 13.1705 40.0252 13.1982C40.0252 14.4106 40.0252 15.623 40.0252 16.8355C40.0252 26.5164 40.0309 36.1974 40.0184 45.8783C40.0167 47.1646 40.2642 48.2901 41.5325 49.0387C41.5914 49.159 41.6153 49.2167 41.6191 49.2757C41.6207 49.3008 41.5814 49.3505 41.5584 49.3519C40.4476 49.4206 39.3364 49.4852 38.2253 49.5503C37.8465 49.4688 37.4676 49.3873 36.9372 49.2732C38.7571 47.9602 38.7746 46.0992 38.7696 44.1776C38.7429 33.9126 38.7525 23.6476 38.7616 13.3826C38.763 11.6949 38.4981 10.1552 36.7662 9.26861C36.8022 9.15075 36.8383 9.0329 36.8743 8.91505C38.7034 9.06817 40.5325 9.22129 42.4135 9.51708C42.4871 9.76364 42.4957 9.87235 42.5323 9.97072C45.8483 18.884 49.1658 27.7968 52.4873 36.7081C52.577 36.9485 52.7105 37.1727 52.9529 37.6697C53.1523 36.8093 53.2868 36.2289 53.4213 35.6485C54.2901 33.5849 55.1958 31.5359 56.0208 29.4551C58.612 22.9196 61.1659 16.3694 63.7661 9.8375C63.8945 9.51482 64.313 9.10337 64.6152 9.08751C66.0791 9.01064 67.5496 9.04806 69.0174 9.06648C69.1672 9.06836 69.3152 9.21373 69.4233 9.38151C67.9741 9.90421 67.3658 10.8642 67.3652 12.7057C67.362 23.1313 67.3663 33.5569 67.3612 43.9825C67.3602 45.9592 67.0589 48.0211 69.3195 49.277C69.2375 49.3692 69.1555 49.4614 69.0735 49.5536C67.2551 49.5536 65.4368 49.5536 63.6185 49.5536C63.1779 49.4678 62.7373 49.382 62.1031 49.2585C63.9124 48.1995 64.0234 46.5917 64.0145 44.8419C63.9712 36.3081 63.9958 27.774 63.9924 19.2399C63.9922 18.7413 63.9572 18.2426 63.9169 17.5584C63.9886 16.0729 64.0817 14.773 64.1749 13.4732C64.0599 13.4609 63.9448 13.4486 63.8298 13.4363C63.7358 13.6603 63.6376 13.8826 63.5484 14.1085C61.8295 18.4643 60.1271 22.8266 58.3889 27.1747C56.8648 30.9873 55.2774 34.7748 53.7666 38.5926C53.2059 40.0094 52.7834 41.4805 52.2978 42.9268Z" fill="var(--fill-0, #FDFCFA)"/>
<path id="Vector_2" d="M80.1596 49.4489C79.5931 49.4151 79.0267 49.3812 78.2175 49.3328C80.2396 48.1634 80.324 46.3921 80.3188 44.5173C80.2898 34.1597 80.289 23.8019 80.3204 13.4444C80.3257 11.6987 80.0492 10.1703 78.0543 9.13567C78.6938 9.09203 78.9922 9.05428 79.2906 9.05395C82.8372 9.04999 86.3847 9.1019 89.9301 9.03624C92.9005 8.98123 95.795 9.17243 98.5443 10.7808C98.7764 10.9963 98.9124 11.1121 99.0495 11.2266C101.925 13.6268 103.095 16.7066 102.19 20.3106C101.318 23.7855 98.8876 25.9583 95.3875 26.7131C93.765 27.063 92.051 26.9928 90.3782 27.1093C90.0116 27.1348 89.644 27.1443 89.2192 27.1638C89.8189 28.4851 90.3755 28.9607 91.5126 29.215C91.5126 29.215 91.5147 29.1993 91.5173 29.2442C91.5632 29.3393 91.6179 29.3686 91.6838 29.377C93.0971 29.4747 94.5119 29.5558 95.9235 29.6741C97.8682 29.8372 99.67 30.452 101.404 31.5849C101.647 31.8311 101.85 31.9224 102 32.0683C104.935 34.9212 106.02 38.3524 104.951 42.3087C103.9 46.1951 101.263 48.4638 97.2907 49.1779C96.7288 49.2789 96.1596 49.339 95.4937 49.4084C90.3156 49.4155 85.2376 49.4322 80.1596 49.4489ZM94.0916 10.7506C94.0916 10.7506 94.1103 10.7435 94.0056 10.6083C92.8372 10.4982 91.6705 10.3188 90.5002 10.2929C88.2211 10.2425 85.94 10.2782 83.632 10.2782C83.632 15.5585 83.632 20.7073 83.632 25.9061C84.0734 25.9061 84.4289 25.9061 84.9901 25.9391C87.0998 25.9452 89.21 25.9811 91.3191 25.9496C93.8644 25.9117 96.0608 25.1524 97.2426 22.6781C98.0816 20.9214 98.6632 19.0635 98.3848 17.0954C98.0106 14.4506 97.2289 11.9979 94.3557 10.7618C94.2651 10.7519 94.1745 10.7421 94.0916 10.7506ZM85.1595 48.2119C88.3506 48.2304 91.5422 48.2946 94.7324 48.2531C97.3304 48.2193 99.126 46.8637 100.171 44.5414C101.621 41.3193 101.702 38.0226 100.388 34.7531C99.7975 33.2838 98.9086 31.9644 97.1425 31.3034C95.3608 31.121 93.579 30.9386 91.6392 30.696C89.9255 30.2725 88.6975 29.2722 87.9662 27.4968C87.8128 27.3726 87.6618 27.1442 87.5056 27.1407C86.2264 27.1115 84.9461 27.1243 83.6213 27.1243C83.6213 34.2121 83.6213 41.1829 83.6213 48.2542C84.1214 48.2136 84.5382 48.1798 85.1595 48.2119Z" fill="var(--fill-0, #FEFDFD)"/>
<path id="Vector_3" d="M171.175 49.3997C170.157 49.5878 169.65 49.029 169.177 48.2098C165.861 42.4668 162.507 36.7459 159.161 31.0199C158.981 30.7129 158.77 30.4245 158.511 30.0027C158.325 29.7252 158.204 29.4421 158.077 29.4394C156.59 29.4084 155.102 29.4195 153.537 29.4195C153.537 29.9618 153.537 30.3506 153.537 30.7394C153.537 35.4251 153.577 40.1113 153.516 44.7962C153.493 46.5609 153.722 48.1379 155.365 49.2215C155.324 49.3301 155.283 49.4387 155.242 49.5473C153.401 49.5473 151.56 49.5473 149.719 49.5473C149.343 49.4654 148.967 49.3834 148.403 49.2608C150.301 48.0719 150.303 46.2799 150.298 44.4254C150.271 34.066 150.265 23.7064 150.305 13.3471C150.312 11.6116 149.959 10.1621 148.06 9.14276C148.653 9.09702 148.946 9.055 149.24 9.05468C153.109 9.0504 156.981 9.11838 160.848 9.03008C163.689 8.96523 166.319 9.49535 168.77 11.1951C172.058 14.1392 173.133 17.7661 172.178 21.7849C170.963 26.8934 167.265 29.2041 162.021 29.4268C163.393 31.7813 164.653 33.9762 165.944 36.1531C168.568 40.5783 171.019 45.1079 173.782 49.3997C173.031 49.3997 172.103 49.3997 171.175 49.3997ZM155.174 28.1032C157.433 28.1113 159.691 28.126 161.95 28.1257C164.169 28.1254 165.784 27.0785 166.84 25.184C168.858 21.5642 168.898 17.8154 167.394 14.0268C166.829 12.6028 165.896 11.4335 164.29 10.712C163.488 10.5662 162.689 10.318 161.883 10.2946C159.805 10.234 157.724 10.2727 155.645 10.2719C154.977 10.2716 154.31 10.2718 153.616 10.2718C153.616 16.306 153.616 22.1817 153.616 28.0741C154.119 28.0741 154.544 28.0741 155.174 28.1032Z" fill="var(--fill-0, #FEFDFD)"/>
<path id="Vector_4" d="M1.57795 49.2043C1.12912 49.1515 0.680281 49.0987 0 49.0188C2.3703 47.6416 2.4256 45.2433 3.10138 43.2131C5.40325 36.2976 7.5793 29.3405 9.81019 22.4015C11.1881 18.1156 12.5725 13.8316 13.9673 9.55104C14.3326 8.42997 14.8677 8.30303 15.7164 9.25428C19.531 21.1987 23.3167 32.986 27.1002 44.774C27.5844 46.2827 27.8867 47.8837 29.4516 48.8775C27.4908 48.9845 25.7136 49.0815 23.9365 49.1785C23.4892 49.1331 23.0419 49.0877 22.2239 49.0048C24.6743 47.7398 24.1208 46.074 23.5083 44.288C22.1181 40.234 20.8293 36.1454 19.4536 31.9346C19.0937 31.6263 18.7812 31.3091 18.4648 31.3051C15.4527 31.2672 12.4395 31.3112 9.42771 31.263C8.62775 31.2502 8.30999 31.5449 8.08134 32.271C6.7064 36.6371 5.31261 40.9979 3.86347 45.34C3.46481 46.5346 3.78454 47.4265 4.61482 48.2441C4.82614 48.4522 5.04733 48.6503 5.28294 48.8708C3.98724 48.9874 2.7826 49.0959 1.57795 49.2043ZM10.5127 30.0403C13.263 30.0403 16.0133 30.0403 18.8814 30.0403C18.755 29.5898 18.671 29.2512 18.5653 28.9196C17.4801 25.5163 16.3988 22.1117 15.2967 18.7138C15.1041 18.1199 14.8201 17.5555 14.5988 16.8083C14.4146 16.0578 14.2305 15.3073 14.0464 14.5568C13.9599 14.556 13.8734 14.5553 13.7869 14.5545C12.1401 19.6733 10.4933 24.792 8.81571 30.0066C9.40233 30.0066 9.8549 30.0066 10.5127 30.0403Z" fill="var(--fill-0, #FDFCFA)"/>
<path id="Vector_5" d="M135.742 49.5556C135.272 49.4888 134.802 49.422 134.331 49.355C136.12 47.8454 136.199 47.5699 135.456 45.2549C134.173 41.2559 132.882 37.2591 131.601 33.2594C131.482 32.8882 131.406 32.5034 131.239 31.9927C131.083 31.8184 130.999 31.7763 130.814 31.7204C127.26 31.7285 123.806 31.7504 120.282 31.8052C118.633 36.656 117.037 41.4683 115.508 46.3017C115.37 46.7382 115.548 47.375 115.787 47.8044C116.1 48.3684 116.619 48.8188 117.049 49.3173C115.884 49.3932 114.718 49.4699 113.553 49.5465C113.134 49.4707 112.715 49.395 112.249 49.3106C114.289 47.2291 114.561 44.3743 115.438 41.7981C117.431 35.943 119.271 30.0362 121.169 24.1488C122.704 19.3846 124.233 14.6181 125.764 9.85262C126.061 8.92673 126.471 8.80896 127.48 9.52036C127.642 10.1125 127.762 10.556 127.903 10.9931C131.605 22.5159 135.312 34.0371 139.009 45.5613C139.453 46.9441 139.799 48.3691 141.14 49.3003C140.646 49.3963 140.228 49.3835 139.812 49.3987C138.567 49.4438 137.324 49.4998 136.023 49.5407C135.892 49.5385 135.817 49.547 135.742 49.5556ZM122.245 30.4662C125.015 30.4662 127.786 30.4662 130.621 30.4662C130.581 30.1821 130.582 30.0411 130.541 29.9129C129.273 25.9057 128.005 21.8989 126.723 17.8962C126.663 17.71 126.482 17.5625 126.366 17.221C126.183 16.4366 126 15.6522 125.817 14.8678C125.732 14.8847 125.647 14.9015 125.562 14.9184C123.913 20.0653 122.265 25.2121 120.59 30.4413C121.195 30.4413 121.617 30.4413 122.245 30.4662Z" fill="var(--fill-0, #FDFCFA)"/>
<path id="Vector_6" d="M63.591 49.6056C65.437 49.5537 67.2553 49.5537 69.0736 49.5537C69.1556 49.4616 69.2376 49.3694 69.3197 49.2772C67.059 48.0213 67.3604 45.9594 67.3614 43.9827C67.3665 33.5571 67.3622 23.1315 67.3654 12.7059C67.3659 10.8644 67.9742 9.90438 69.459 9.45578C69.9103 9.49715 70.2854 9.55339 70.993 9.6595C68.6228 10.7812 68.6846 12.6939 68.6872 14.6181C68.7016 24.905 68.7138 35.192 68.6753 45.4788C68.6686 47.2694 69.0286 48.7936 70.9254 49.9756C68.2951 49.9756 65.9904 49.9772 63.6858 49.9623C63.6443 49.9621 63.6041 49.7635 63.591 49.6056Z" fill="var(--fill-0, #B78569)"/>
<path id="Vector_7" d="M171.173 49.4842C172.103 49.3997 173.031 49.3997 173.782 49.3997C171.019 45.1078 168.568 40.5782 165.944 36.1531C164.653 33.9761 163.393 31.7812 162.021 29.4268C167.265 29.204 170.963 26.8934 172.177 21.7848C173.133 17.766 172.058 14.1391 168.817 11.2515C169.464 11.5534 170.24 11.8075 170.773 12.3148C175.375 16.6896 174.85 24.5671 169.609 28.1532C168.31 29.0423 166.576 29.3098 165.029 29.8245C164.607 29.9648 164.139 29.965 163.501 30.057C164.54 31.8444 165.489 33.4724 166.434 35.1024C168.874 39.3112 171.298 43.5297 173.765 47.7222C174.222 48.4978 174.856 49.1697 175.472 49.9728C174.2 49.9728 172.897 49.9854 171.594 49.9551C171.45 49.9517 171.311 49.7034 171.173 49.4842Z" fill="var(--fill-0, #B9886D)"/>
<path id="Vector_8" d="M23.926 49.2432C25.7138 49.0816 27.491 48.9846 29.4518 48.8775C27.8869 47.8838 27.5846 46.2828 27.1004 44.7741C23.3169 32.9861 19.5312 21.1988 15.7427 9.32836C16.6913 9.02935 17.0223 9.53806 17.2889 10.3725C21.0696 22.2066 24.8823 34.0305 28.686 45.8573C29.1202 47.2074 29.4652 48.6068 30.7678 49.5526C28.5295 49.5526 26.2912 49.554 24.053 49.5424C24.0067 49.5421 23.9613 49.3894 23.926 49.2432Z" fill="var(--fill-0, #B9876C)"/>
<path id="Vector_9" d="M136.08 49.5517C137.324 49.4999 138.568 49.4438 139.812 49.3987C140.229 49.3836 140.647 49.3963 141.14 49.3004C139.799 48.3692 139.453 46.9442 139.01 45.5614C135.312 34.0372 131.605 22.516 127.903 10.9932C127.763 10.5561 127.642 10.1126 127.522 9.59474C128.411 9.38557 128.773 9.82578 129.031 10.6355C132.932 22.8508 136.852 35.0604 140.817 47.255C141.08 48.0631 141.747 48.7403 142.269 49.5932C142.311 49.7847 142.309 49.8616 142.307 49.9384C140.297 49.9475 138.286 49.9565 136.175 49.9032C136.076 49.7444 136.078 49.648 136.08 49.5517Z" fill="var(--fill-0, #B9886D)"/>
<path id="Vector_10" d="M52.3651 42.9659C52.7836 41.4805 53.2062 40.0094 53.7668 38.5926C55.2777 34.7748 56.865 30.9873 58.3891 27.1747C60.1273 22.8266 61.8297 18.4643 63.5486 14.1085C63.6378 13.8826 63.736 13.6603 63.83 13.4363C63.9451 13.4486 64.0601 13.4609 64.1751 13.4732C64.082 14.773 63.9888 16.0729 63.8811 17.4588C63.3968 18.5668 62.8784 19.5695 62.4652 20.6136C59.5372 28.0129 56.6314 35.4208 53.7157 42.8249C53.5395 43.2722 53.3386 43.7097 53.0647 44.3488C52.7849 43.7545 52.6085 43.3798 52.3651 42.9659Z" fill="var(--fill-0, #BA896D)"/>
<path id="Vector_11" d="M41.4893 48.9766C40.2642 48.29 40.0167 47.1645 40.0183 45.8783C40.0309 36.1973 40.0252 26.5164 40.0252 16.8354C40.0252 15.623 40.0252 14.4105 40.0252 13.1981C40.127 13.1705 40.2288 13.1428 40.3306 13.1152C40.6897 14.3999 41.0488 15.6846 41.4151 17.0572C41.3898 17.5693 41.3294 17.9935 41.3291 18.4177C41.3236 27.6182 41.3056 36.8187 41.3541 46.0189C41.3589 46.94 41.7747 47.859 41.934 48.8618C41.742 48.9553 41.6157 48.9659 41.4893 48.9766Z" fill="var(--fill-0, #BA896D)"/>
<path id="Vector_12" d="M149.698 49.6013C151.561 49.5475 153.402 49.5475 155.243 49.5475C155.284 49.4389 155.325 49.3303 155.365 49.2217C153.722 48.1381 153.493 46.5611 153.516 44.7964C153.577 40.1115 153.537 35.4253 153.537 30.7396C153.537 30.3508 153.537 29.962 153.537 29.4197C155.102 29.4197 156.59 29.4086 158.077 29.4396C158.204 29.4423 158.325 29.7254 158.447 29.9669C157.585 30.0396 156.724 30.0407 155.866 30.002C155.23 29.9733 154.968 30.2167 154.971 30.8719C154.987 36.164 154.969 41.4562 154.992 46.7483C154.997 48.0723 155.772 49.0067 156.978 49.8424C156.577 49.9167 156.361 49.9906 156.145 49.9916C154.208 50.0007 152.271 50.008 150.335 49.9821C150.114 49.9791 149.896 49.7691 149.698 49.6013Z" fill="var(--fill-0, #BB8C71)"/>
<path id="Vector_13" d="M1.60231 49.2796C2.78267 49.0955 3.98732 48.987 5.28302 48.8704C5.04741 48.6499 4.82622 48.4518 4.6149 48.2437C3.78461 47.4261 3.46489 46.5342 3.86355 45.3397C5.31268 40.9975 6.70648 36.6368 8.08141 32.2706C8.31007 31.5445 8.62783 31.2498 9.42779 31.2626C12.4396 31.3108 15.4528 31.2668 18.4648 31.3047C18.7813 31.3087 19.0937 31.6259 19.3876 31.8908C16.3567 31.9637 13.346 31.923 10.3362 31.9554C10.0319 31.9587 9.55896 32.3459 9.45689 32.652C7.96423 37.1277 6.51036 41.6165 5.07422 46.1107C4.70566 47.2641 5.3844 48.0917 6.11622 48.8584C6.3021 49.0531 6.54996 49.1891 6.76934 49.352C6.75364 49.4536 6.73795 49.5552 6.72225 49.6568C5.0237 49.5563 3.32515 49.4558 1.60231 49.2796Z" fill="var(--fill-0, #BA896D)"/>
<path id="Vector_14" d="M53.357 35.6037C53.2868 36.2293 53.1523 36.8097 52.9529 37.6701C52.7105 37.1731 52.577 36.9489 52.4873 36.7084C49.1659 27.7972 45.8483 18.8844 42.5323 9.97111C42.4957 9.87274 42.4871 9.76402 42.472 9.58346C43.2857 9.40567 43.6825 9.77746 43.9631 10.5382C46.9563 18.6554 49.9835 26.7601 53.0031 34.8676C53.0902 35.1014 53.1958 35.3284 53.357 35.6037Z" fill="var(--fill-0, #B9876C)"/>
<path id="Vector_15" d="M91.4855 29.1463C90.3754 28.9614 89.8188 28.4857 89.2192 27.1645C89.6439 27.1449 90.0116 27.1355 90.3781 27.1099C92.0509 26.9934 93.7649 27.0636 95.3875 26.7137C98.8875 25.959 101.318 23.7861 102.19 20.3112C103.095 16.7073 101.925 13.6275 99.0494 11.2272C98.9123 11.1128 98.7763 10.9969 98.6117 10.8139C100.508 11.0312 103.526 14.6729 103.804 17.5206C104.42 23.8268 99.4752 27.5597 94.3006 27.6757C93.1304 27.7019 91.9591 27.6796 90.5207 27.6796C90.929 28.288 91.1938 28.6825 91.4855 29.1463Z" fill="var(--fill-0, #B9886D)"/>
<path id="Vector_16" d="M95.594 49.4181C96.1598 49.3391 96.7291 49.279 97.2909 49.178C101.263 48.4639 103.9 46.1952 104.951 42.3088C106.02 38.3524 104.936 34.9213 102.001 32.0683C101.85 31.9225 101.647 31.8312 101.449 31.6453C102.05 31.8813 102.772 32.0717 103.276 32.5104C106.608 35.4114 107.662 39.9949 105.99 44.0173C104.324 48.0227 100.587 50.1956 95.6814 49.8725C95.5907 49.6648 95.5923 49.5415 95.594 49.4181Z" fill="var(--fill-0, #BB8C71)"/>
<path id="Vector_17" d="M113.526 49.5999C114.719 49.47 115.884 49.3934 117.05 49.3174C116.619 48.8189 116.1 48.3685 115.787 47.8046C115.548 47.3751 115.37 46.7384 115.508 46.3018C117.037 41.4684 118.634 36.6562 120.337 31.8574C120.788 31.99 121.112 32.1034 121.437 32.2168C120.084 36.4618 118.825 40.7399 117.337 44.9374C116.63 46.9329 116.575 48.5323 118.471 49.938C116.82 49.938 115.17 49.9384 113.519 49.9262C113.512 49.9262 113.506 49.748 113.526 49.5999ZM113.821 49.6921L113.779 49.6656C113.779 49.6656 113.783 49.7184 113.821 49.6921Z" fill="var(--fill-0, #BB8B6F)"/>
<path id="Vector_18" d="M12.0995 5.40188C11.648 5.36065 11.1965 5.31943 10.5527 5.26066C11.4121 3.5558 12.1685 1.95059 13.0271 0.401684C13.3842 -0.242582 15.6879 -0.0859399 16.3887 0.686278C17.1475 2.25623 17.8463 3.68445 18.5638 5.15107C18.2476 5.24014 18.0455 5.29709 17.8434 5.35404C16.9741 5.50762 16.4573 5.12896 16.1693 4.31753C16.0426 3.96064 15.8023 3.64384 15.5478 3.19326C15.2537 2.55236 15.0253 2.02702 14.6949 1.26698C14.0818 2.48597 13.6324 3.47726 13.0886 4.4141C12.8627 4.80325 12.4352 5.07613 12.0995 5.40188Z" fill="var(--fill-0, #FDFBF9)"/>
<path id="Vector_19" d="M95.4937 49.4083C95.592 49.5413 95.5904 49.6647 95.5839 49.8484C90.4935 49.9197 85.4079 49.9308 80.2191 49.8756C80.1078 49.7406 80.1048 49.6716 80.1068 49.6024C80.1068 49.6024 80.143 49.529 80.1513 49.4889C85.2375 49.4321 90.3156 49.4154 95.4937 49.4083Z" fill="var(--fill-0, #B0795D)"/>
<path id="Vector_20" d="M12.1134 5.48396C12.4355 5.0759 12.863 4.80302 13.0889 4.41387C13.6327 3.47703 14.0821 2.48574 14.6952 1.26675C15.0256 2.0268 15.254 2.55213 15.4829 3.15495C15.1858 3.75333 14.8704 4.26503 14.5943 4.79703C14.0019 5.93869 13.4395 6.12162 12.1134 5.48396Z" fill="var(--fill-0, #B78569)"/>
<path id="Vector_21" d="M17.8773 5.43411C18.0457 5.29662 18.2478 5.23968 18.564 5.1506C17.8465 3.68399 17.1477 2.25577 16.4322 0.757246C17.2052 0.499385 17.6578 0.81866 17.9773 1.55835C18.5625 2.91325 19.2311 4.23235 19.8649 5.56637C19.8154 5.66789 19.7658 5.76942 19.7163 5.87094C19.1145 5.75218 18.5127 5.63341 17.8773 5.43411Z" fill="var(--fill-0, #B9876C)"/>
<path id="Vector_22" d="M121.537 32.2085C121.112 32.1028 120.787 31.9894 120.408 31.824C123.806 31.75 127.26 31.728 130.826 31.8049C130.954 31.9591 130.968 32.0145 130.983 32.0698C128.692 32.1108 126.402 32.1548 124.111 32.191C123.287 32.204 122.462 32.1981 121.537 32.2085Z" fill="var(--fill-0, #B0795D)"/>
<path id="Vector_23" d="M41.5327 49.0389C41.6159 48.9662 41.7422 48.9555 41.9637 48.9372C42.1135 48.9536 42.158 48.9899 42.2066 49.1611C42.2193 49.4998 42.2178 49.7161 42.2163 49.9324C41.0367 49.9527 39.8571 49.9845 38.6776 49.9795C38.5212 49.9788 38.3656 49.7905 38.2176 49.6198C39.3366 49.4854 40.4478 49.4208 41.5586 49.3521C41.5817 49.3507 41.6209 49.3009 41.6193 49.2759C41.6155 49.2169 41.5916 49.1592 41.5327 49.0389Z" fill="var(--fill-0, #BB8C71)"/>
<path id="Vector_24" d="M42.2861 49.946C42.2176 49.7159 42.2191 49.4996 42.2247 49.2004C42.3588 49.2133 42.4886 49.309 42.64 49.5288C42.6542 49.7465 42.6469 49.8401 42.6395 49.9337C42.5451 49.9424 42.4506 49.9512 42.2861 49.946Z" fill="var(--fill-0, #BA896D)"/>
<path id="Vector_25" d="M42.7061 49.9529C42.6472 49.8407 42.6545 49.7472 42.6705 49.5827C42.8756 49.5878 43.072 49.6638 43.5406 49.8451C43.108 49.9163 42.9402 49.9439 42.7061 49.9529Z" fill="var(--fill-0, #BB8C71)"/>
<path id="Vector_26" d="M136.024 49.5403C136.078 49.6475 136.076 49.7439 136.076 49.8875C135.959 49.8438 135.84 49.7529 135.732 49.6086C135.817 49.5466 135.892 49.538 136.024 49.5403Z" fill="var(--fill-0, #BB8C71)"/>
<path id="Vector_27" d="M80.0451 49.6079C80.105 49.6717 80.1081 49.7407 80.1216 49.8602C79.9761 49.8937 79.8252 49.8766 79.6742 49.8594C79.7772 49.7773 79.8801 49.6952 80.0451 49.6079Z" fill="var(--fill-0, #BB8C71)"/>
<path id="Vector_28" d="M142.364 49.9489C142.309 49.8614 142.311 49.7846 142.313 49.6498C142.412 49.6605 142.511 49.7291 142.61 49.7978C142.547 49.8517 142.484 49.9056 142.364 49.9489Z" fill="var(--fill-0, #BB8C71)"/>
<path id="Vector_29" d="M91.6583 29.3422C91.6177 29.369 91.5631 29.3397 91.5093 29.2432C91.5459 29.231 91.5905 29.2677 91.6583 29.3422Z" fill="var(--fill-0, #B9886D)"/>
<path id="Vector_30" d="M131.049 32.0547C130.969 32.0153 130.954 31.9599 130.927 31.8196C130.999 31.7766 131.084 31.8187 131.204 31.9245C131.199 32.0051 131.157 32.0219 131.049 32.0547Z" fill="var(--fill-0, #BB8B6F)"/>
<path id="Vector_31" d="M87.9811 27.5718C87.3516 27.6599 86.7023 27.7289 86.064 27.6727C85.1846 27.5953 84.9777 27.9767 84.9804 28.7895C85.0016 35.1838 84.986 41.5781 84.9685 48.0592C84.5383 48.1799 84.1214 48.2137 83.6214 48.2543C83.6214 41.183 83.6214 34.2121 83.6214 27.1243C84.9462 27.1243 86.2264 27.1116 87.5057 27.1408C87.6619 27.1443 87.8129 27.3727 87.9811 27.5718Z" fill="var(--fill-0, #B78569)"/>
<path id="Vector_32" d="M94.0579 10.6764C91.5304 10.7525 88.9506 10.7618 86.3709 10.769C84.8767 10.7731 84.8778 10.7716 84.8738 12.2192C84.8613 16.7203 84.8479 21.2213 84.8096 25.8144C84.4288 25.9066 84.0733 25.9066 83.6319 25.9066C83.6319 20.7078 83.6319 15.559 83.6319 10.2787C85.9399 10.2787 88.221 10.2431 90.5002 10.2935C91.6704 10.3193 92.8372 10.4988 94.0579 10.6764Z" fill="var(--fill-0, #B68368)"/>
<path id="Vector_33" d="M97.2157 31.3391C95.4635 31.5242 93.6452 31.6035 91.8545 30.7969C93.579 30.9389 95.3607 31.1213 97.2157 31.3391Z" fill="var(--fill-0, #B9876C)"/>
<path id="Vector_34" d="M94.4243 10.7676C94.3792 10.7841 94.2657 10.7954 94.1182 10.7698C94.1747 10.7426 94.2653 10.7525 94.4243 10.7676Z" fill="var(--fill-0, #B68368)"/>
<path id="Vector_35" d="M164.362 10.7494C162.691 10.8254 160.95 10.8723 159.208 10.8996C158.136 10.9163 157.061 10.9547 155.993 10.8875C155.052 10.8283 154.964 11.3201 154.966 12.0629C154.982 17.3356 154.972 22.6084 154.969 27.9777C154.544 28.0743 154.119 28.0743 153.616 28.0743C153.616 22.1818 153.616 16.3062 153.616 10.272C154.31 10.272 154.978 10.2718 155.645 10.272C157.725 10.2728 159.805 10.2342 161.883 10.2947C162.689 10.3182 163.488 10.5664 164.362 10.7494Z" fill="var(--fill-0, #BA8B6F)"/>
<path id="Vector_36" d="M14.5887 16.893C14.353 17.5343 14.0916 18.0795 13.9077 18.6496C12.7047 22.3791 11.5185 26.114 10.3172 29.9269C9.85507 30.0067 9.40251 30.0067 8.81588 30.0067C10.4935 24.7921 12.1403 19.6734 13.7871 14.5546C13.8736 14.5554 13.9601 14.5562 14.0465 14.5569C14.2307 15.3074 14.4148 16.0579 14.5887 16.893Z" fill="var(--fill-0, #BA896D)"/>
<path id="Vector_37" d="M126.362 17.3085C125.743 19.1414 125.101 20.8771 124.522 22.6334C123.683 25.1773 122.889 27.7361 122.058 30.3647C121.617 30.4409 121.195 30.4409 120.59 30.4409C122.265 25.2117 123.913 20.0648 125.562 14.918C125.647 14.9011 125.732 14.8842 125.817 14.8674C126 15.6517 126.183 16.4361 126.362 17.3085Z" fill="var(--fill-0, #BB8B6F)"/>
<path id="Vector_38" d="M113.802 49.706C113.783 49.7194 113.779 49.6657 113.779 49.6657C113.779 49.6657 113.821 49.6926 113.802 49.706Z" fill="var(--fill-0, #E2D2B0)"/>
</g>
</svg>
