<svg preserveAspectRatio="none" width="100%" height="100%" overflow="visible" style="display: block;" viewBox="0 0 496 141" fill="none" xmlns="http://www.w3.org/2000/svg">
<g id="Frame 279">
<path id="Vector" d="M147.829 121.054C147.263 121.711 146.698 122.368 145.874 123.325C143.7 117.54 141.579 111.934 139.484 106.319C132.654 88.0053 125.839 69.6861 118.992 51.3785C118.612 50.3639 118 49.4354 117.271 48.1603C116.031 44.2308 115.016 40.6079 114.001 36.9851C113.714 37.063 113.426 37.1409 113.138 37.2188C113.138 40.6379 113.138 44.057 113.138 47.4761C113.138 74.7763 113.154 102.077 113.119 129.377C113.114 133.004 113.814 136.178 117.398 138.289C117.565 138.628 117.633 138.791 117.643 138.957C117.648 139.028 117.537 139.168 117.472 139.172C114.332 139.366 111.191 139.548 108.05 139.732C106.979 139.502 105.908 139.272 104.409 138.95C109.553 135.248 109.603 130 109.589 124.581C109.513 95.6336 109.54 66.6863 109.566 37.739C109.57 32.9796 108.821 28.6376 103.926 26.1375C104.028 25.8051 104.129 25.4728 104.231 25.1404C109.402 25.5722 114.572 26.004 119.889 26.8382C120.097 27.5335 120.121 27.84 120.225 28.1174C129.598 53.253 138.975 78.3869 148.364 103.517C148.618 104.195 148.995 104.827 149.68 106.228C150.244 103.802 150.624 102.166 151.004 100.529C153.46 94.7095 156.02 88.9313 158.352 83.0634C165.676 64.6333 172.896 46.1617 180.246 27.7418C180.609 26.8318 181.792 25.6715 182.646 25.6268C186.784 25.41 190.94 25.5155 195.089 25.5675C195.513 25.5728 195.931 25.9827 196.237 26.4558C192.14 27.9299 190.421 30.637 190.419 35.8301C190.41 65.2303 190.422 94.6305 190.408 124.031C190.405 129.605 189.553 135.42 195.943 138.961C195.711 139.221 195.479 139.481 195.248 139.741C190.108 139.741 184.968 139.741 179.828 139.741C178.583 139.499 177.337 139.257 175.545 138.909C180.659 135.923 180.973 131.389 180.948 126.454C180.825 102.389 180.895 78.3226 180.885 54.2566C180.885 52.8504 180.786 51.4442 180.672 49.5147C180.874 45.3256 181.138 41.66 181.401 37.9943C181.076 37.9597 180.751 37.925 180.426 37.8903C180.16 38.522 179.882 39.149 179.63 39.7861C174.771 52.0693 169.959 64.371 165.046 76.6327C160.738 87.3842 156.251 98.0651 151.98 108.831C150.395 112.826 149.201 116.975 147.829 121.054Z" fill="var(--fill-0, #FDFCFA)"/>
<path id="Vector_2" d="M226.584 139.446C224.983 139.35 223.382 139.255 221.095 139.119C226.811 135.821 227.049 130.826 227.034 125.539C226.953 96.3304 226.95 67.1215 227.039 37.9131C227.054 32.9903 226.272 28.6802 220.633 25.7626C222.441 25.6395 223.285 25.5331 224.128 25.5321C234.153 25.521 244.181 25.6674 254.202 25.4822C262.599 25.3271 270.781 25.8663 278.552 30.4019C279.208 31.0094 279.592 31.3362 279.98 31.6589C288.109 38.4276 291.415 47.1127 288.857 57.2759C286.391 67.075 279.522 73.2025 269.629 75.3309C265.042 76.3176 260.198 76.1197 255.469 76.4482C254.433 76.5202 253.394 76.5469 252.193 76.602C253.888 80.3279 255.461 81.6692 258.676 82.3863C258.676 82.3863 258.682 82.3421 258.689 82.4687C258.819 82.7369 258.973 82.8195 259.159 82.8431C263.155 83.1186 267.154 83.3473 271.144 83.6811C276.641 84.1409 281.734 85.8747 286.635 89.0694C287.322 89.7638 287.897 90.0211 288.321 90.4325C296.617 98.4779 299.683 108.154 296.66 119.31C293.691 130.27 286.237 136.668 275.008 138.682C273.42 138.967 271.811 139.136 269.929 139.332C255.292 139.352 240.938 139.399 226.584 139.446ZM265.966 30.3166C265.966 30.3166 266.018 30.2967 265.722 29.9153C262.42 29.605 259.122 29.099 255.814 29.0261C249.372 28.884 242.924 28.9844 236.4 28.9844C236.4 43.875 236.4 58.3945 236.4 73.0552C237.648 73.0552 238.652 73.0552 240.239 73.1482C246.202 73.1654 252.167 73.2666 258.129 73.178C265.323 73.0711 271.532 70.9299 274.872 63.9521C277.244 58.9984 278.888 53.759 278.101 48.2092C277.043 40.7507 274.834 33.8341 266.712 30.3483C266.456 30.3205 266.2 30.2926 265.966 30.3166ZM240.718 135.957C249.738 136.01 258.759 136.191 267.777 136.074C275.121 135.978 280.196 132.156 283.15 125.607C287.249 116.521 287.477 107.224 283.763 98.0038C282.094 93.8602 279.582 90.1396 274.59 88.2756C269.553 87.7612 264.517 87.2468 259.034 86.5627C254.19 85.3684 250.718 82.5476 248.651 77.541C248.218 77.1908 247.791 76.5468 247.349 76.5367C243.733 76.4545 240.114 76.4904 236.37 76.4904C236.37 96.478 236.37 116.136 236.37 136.077C237.783 135.962 238.961 135.867 240.718 135.957Z" fill="var(--fill-0, #FEFDFD)"/>
<path id="Vector_3" d="M483.856 139.307C480.978 139.838 479.544 138.262 478.207 135.952C468.834 119.756 459.352 103.623 449.895 87.4762C449.387 86.6104 448.79 85.7971 448.058 84.6077C447.532 83.825 447.19 83.0267 446.831 83.0192C442.628 82.9318 438.423 82.9631 433.997 82.9631C433.997 84.4924 433.997 85.5887 433.997 86.685C433.997 99.8988 434.111 113.114 433.938 126.325C433.873 131.302 434.52 135.749 439.166 138.805C439.05 139.111 438.934 139.417 438.819 139.724C433.615 139.724 428.411 139.724 423.207 139.724C422.143 139.492 421.079 139.261 419.486 138.915C424.85 135.563 424.858 130.509 424.844 125.28C424.766 96.0662 424.75 66.8521 424.862 37.6388C424.881 32.7446 423.885 28.6572 418.517 25.7826C420.193 25.6536 421.022 25.5351 421.851 25.5342C432.789 25.5221 443.732 25.7138 454.664 25.4648C462.695 25.282 470.129 26.7769 477.056 31.5703C486.352 39.8726 489.389 50.1004 486.689 61.4334C483.257 75.8395 472.802 82.3555 457.98 82.9837C461.858 89.6233 465.421 95.8129 469.069 101.952C476.486 114.431 483.414 127.204 491.224 139.307C489.102 139.307 486.479 139.307 483.856 139.307ZM438.626 79.2512C445.01 79.274 451.394 79.3152 457.778 79.3145C464.05 79.3137 468.615 76.3615 471.6 71.0188C477.304 60.8112 477.419 50.2394 473.167 39.5555C471.569 35.54 468.934 32.2424 464.394 30.2078C462.127 29.7966 459.867 29.0969 457.59 29.0306C451.716 28.8598 445.835 28.9689 439.956 28.9666C438.07 28.9659 436.183 28.9665 434.221 28.9665C434.221 45.9829 434.221 62.5523 434.221 79.1689C435.643 79.1689 436.844 79.1689 438.626 79.2512Z" fill="var(--fill-0, #FEFDFD)"/>
<path id="Vector_4" d="M4.46034 138.756C3.19163 138.607 1.92293 138.458 0 138.233C6.70004 134.349 6.85636 127.586 8.76658 121.861C15.2732 102.359 21.4242 82.7403 27.7302 63.1723C31.6252 51.0859 35.5382 39.0051 39.481 26.9339C40.5136 23.7725 42.026 23.4146 44.4251 26.0971C55.2077 59.7802 65.9086 93.0205 76.6032 126.263C77.972 130.517 78.8265 135.032 83.2498 137.834C77.7074 138.136 72.6839 138.41 67.6604 138.683C66.3961 138.555 65.1318 138.427 62.8195 138.193C69.746 134.626 68.1814 129.929 66.4501 124.892C62.5205 113.46 58.8775 101.93 54.9889 90.0555C53.9714 89.1862 53.0882 88.2917 52.1937 88.2804C43.6796 88.1735 35.1623 88.2975 26.649 88.1616C24.3878 88.1254 23.4896 88.9566 22.8432 91.0042C18.9568 103.317 15.017 115.614 10.9208 127.859C9.79387 131.228 10.6976 133.743 13.0446 136.048C13.6419 136.635 14.2671 137.194 14.9331 137.816C11.2706 138.144 7.86547 138.45 4.46034 138.756ZM29.7158 84.7136C37.49 84.7136 45.2641 84.7136 53.3714 84.7136C53.0141 83.4432 52.7768 82.4885 52.4778 81.5532C49.4104 71.9558 46.3538 62.3549 43.2386 52.7728C42.6942 51.0981 41.8914 49.5065 41.2658 47.3994C40.7453 45.2829 40.2248 43.1665 39.7044 41.0501C39.4599 41.048 39.2155 41.0459 38.9711 41.0438C34.3161 55.4786 29.6612 69.9135 24.9191 84.6186C26.5773 84.6186 27.8565 84.6186 29.7158 84.7136Z" fill="var(--fill-0, #FDFCFA)"/>
<path id="Vector_5" d="M383.698 139.747C382.369 139.558 381.039 139.37 379.71 139.181C384.766 134.924 384.989 134.147 382.889 127.619C379.262 116.342 375.614 105.071 371.992 93.7916C371.656 92.7448 371.441 91.6596 370.968 90.2193C370.529 89.7278 370.291 89.6092 369.767 89.4515C359.721 89.4743 349.96 89.5362 339.998 89.6908C335.337 103.37 330.825 116.941 326.502 130.571C326.112 131.802 326.616 133.598 327.29 134.808C328.176 136.399 329.643 137.669 330.86 139.075C327.565 139.289 324.27 139.505 320.976 139.721C319.792 139.507 318.609 139.294 317.292 139.056C323.058 133.186 323.827 125.136 326.306 117.871C331.939 101.359 337.141 84.702 342.504 68.0997C346.844 54.6646 351.164 41.2232 355.493 27.7844C356.334 25.1734 357.49 24.8413 360.343 26.8474C360.802 28.5172 361.142 29.7679 361.539 31.0007C372.004 63.4948 382.482 95.9846 392.933 128.483C394.187 132.382 395.164 136.401 398.955 139.027C397.56 139.297 396.379 139.262 395.201 139.304C391.684 139.431 388.168 139.589 384.493 139.705C384.122 139.698 383.91 139.723 383.698 139.747ZM345.545 85.9146C353.377 85.9146 361.208 85.9146 369.222 85.9146C369.11 85.1135 369.111 84.716 368.996 84.3545C365.413 73.0541 361.826 61.7548 358.203 50.4673C358.034 49.9421 357.521 49.5263 357.196 48.5632C356.678 46.3512 356.161 44.1392 355.644 41.9272C355.403 41.9748 355.162 42.0223 354.922 42.0699C350.262 56.5841 345.602 71.0982 340.867 85.8446C342.577 85.8446 343.771 85.8446 345.545 85.9146Z" fill="var(--fill-0, #FDFCFA)"/>
<path id="Vector_6" d="M179.75 139.888C184.969 139.742 190.108 139.742 195.248 139.742C195.48 139.482 195.712 139.222 195.944 138.962C189.554 135.42 190.405 129.605 190.408 124.031C190.423 94.631 190.41 65.2308 190.419 35.8306C190.421 30.6375 192.141 27.9304 196.338 26.6653C197.613 26.782 198.673 26.9406 200.674 27.2398C193.974 30.4029 194.148 35.7968 194.156 41.2231C194.197 70.2321 194.231 99.2414 194.122 128.25C194.103 133.3 195.121 137.598 200.482 140.931C193.047 140.931 186.533 140.936 180.018 140.894C179.901 140.893 179.787 140.333 179.75 139.888Z" fill="var(--fill-0, #B78569)"/>
<path id="Vector_7" d="M483.848 139.545C486.479 139.307 489.102 139.307 491.224 139.307C483.414 127.204 476.485 114.431 469.069 101.952C465.42 95.8127 461.858 89.6231 457.98 82.9835C472.801 82.3553 483.256 75.8393 486.688 61.4332C489.388 50.1002 486.351 39.8724 477.191 31.7293C479.018 32.5806 481.211 33.2972 482.719 34.7277C495.725 47.0648 494.243 69.2791 479.428 79.3919C475.755 81.8993 470.855 82.6536 466.482 84.1051C465.29 84.5008 463.965 84.5014 462.164 84.7608C465.101 89.8011 467.782 94.3921 470.453 98.9888C477.351 110.858 484.201 122.754 491.177 134.577C492.468 136.764 494.259 138.659 496 140.923C492.406 140.923 488.721 140.959 485.04 140.873C484.632 140.864 484.239 140.164 483.848 139.545Z" fill="var(--fill-0, #B9886D)"/>
<path id="Vector_8" d="M67.6309 138.866C72.6845 138.41 77.7079 138.136 83.2503 137.835C78.827 135.032 77.9726 130.518 76.6038 126.263C65.9091 93.0208 55.2082 59.7805 44.4994 26.306C47.1806 25.4628 48.1162 26.8973 48.8698 29.2505C59.5568 62.6226 70.3339 95.9661 81.0857 129.318C82.3131 133.125 83.2882 137.071 86.9703 139.738C80.6435 139.738 74.3166 139.742 67.9899 139.709C67.8591 139.709 67.7305 139.278 67.6309 138.866Z" fill="var(--fill-0, #B9876C)"/>
<path id="Vector_9" d="M384.653 139.736C388.169 139.59 391.685 139.432 395.202 139.304C396.38 139.262 397.561 139.298 398.956 139.027C395.165 136.401 394.188 132.383 392.934 128.483C382.483 95.9848 372.005 63.495 361.54 31.0009C361.143 29.7682 360.803 28.5175 360.461 27.0572C362.975 26.4673 363.997 27.7087 364.728 29.9921C375.755 64.4393 386.834 98.8702 398.042 133.259C398.785 135.538 400.671 137.448 402.148 139.853C402.266 140.393 402.261 140.61 402.255 140.826C396.572 140.852 390.889 140.877 384.922 140.727C384.642 140.279 384.647 140.007 384.653 139.736Z" fill="var(--fill-0, #B9886D)"/>
<path id="Vector_10" d="M148.019 121.164C149.202 116.975 150.396 112.826 151.981 108.831C156.252 98.0651 160.739 87.3842 165.047 76.6327C169.96 64.371 174.772 52.0693 179.631 39.7861C179.883 39.149 180.161 38.522 180.426 37.8903C180.751 37.925 181.077 37.9597 181.402 37.9943C181.138 41.66 180.875 45.3256 180.571 49.2339C179.202 52.3583 177.736 55.186 176.568 58.1304C168.292 78.9963 160.078 99.8868 151.836 120.766C151.338 122.028 150.77 123.261 149.996 125.064C149.205 123.388 148.707 122.331 148.019 121.164Z" fill="var(--fill-0, #BA896D)"/>
<path id="Vector_11" d="M117.277 138.114C113.813 136.178 113.114 133.004 113.119 129.377C113.154 102.076 113.138 74.7761 113.138 47.4759C113.138 44.0568 113.138 40.6377 113.138 37.2186C113.426 37.1407 113.713 37.0628 114.001 36.9849C115.016 40.6077 116.031 44.2306 117.067 48.1013C116.995 49.5454 116.824 50.7416 116.824 51.938C116.808 77.8832 116.757 103.829 116.894 129.773C116.908 132.371 118.083 134.962 118.533 137.79C117.991 138.054 117.634 138.084 117.277 138.114Z" fill="var(--fill-0, #BA896D)"/>
<path id="Vector_12" d="M423.146 139.876C428.411 139.724 433.615 139.724 438.819 139.724C438.935 139.418 439.051 139.112 439.166 138.805C434.52 135.749 433.873 131.302 433.938 126.326C434.112 113.115 433.997 99.8993 433.997 86.6856C433.997 85.5893 433.997 84.4929 433.997 82.9637C438.423 82.9637 442.629 82.9323 446.832 83.0198C447.19 83.0272 447.532 83.8256 447.876 84.5066C445.44 84.7116 443.008 84.7149 440.581 84.6056C438.784 84.5248 438.044 85.2112 438.05 87.0589C438.097 101.983 438.047 116.907 438.11 131.83C438.125 135.564 440.317 138.199 443.723 140.556C442.591 140.765 441.98 140.973 441.369 140.976C435.894 141.002 430.419 141.023 424.946 140.95C424.322 140.941 423.705 140.349 423.146 139.876Z" fill="var(--fill-0, #BB8C71)"/>
<path id="Vector_13" d="M4.52921 138.969C7.86569 138.449 11.2708 138.143 14.9333 137.814C14.2673 137.193 13.6421 136.634 13.0448 136.047C10.6978 133.742 9.79409 131.226 10.921 127.858C15.0172 115.613 18.957 103.316 22.8435 91.0031C23.4898 88.9555 24.388 88.1244 26.6492 88.1605C35.1625 88.2965 43.6798 88.1724 52.1939 88.2794C53.0884 88.2906 53.9717 89.1851 54.8022 89.932C46.2348 90.1377 37.7248 90.0229 29.2169 90.1143C28.357 90.1235 27.02 91.2155 26.7315 92.0786C22.5122 104.7 18.4026 117.358 14.3431 130.032C13.3013 133.285 15.2199 135.619 17.2885 137.781C17.8139 138.33 18.5146 138.713 19.1347 139.173C19.0903 139.459 19.0459 139.746 19.0016 140.032C14.2003 139.749 9.39909 139.465 4.52921 138.969Z" fill="var(--fill-0, #BA896D)"/>
<path id="Vector_14" d="M150.823 100.403C150.624 102.167 150.244 103.803 149.68 106.23C148.995 104.828 148.618 104.196 148.364 103.518C138.976 78.388 129.598 53.2541 120.225 28.1185C120.121 27.8411 120.097 27.5345 120.054 27.0254C122.354 26.524 123.476 27.5724 124.269 29.7178C132.73 52.6083 141.287 75.4635 149.822 98.3267C150.068 98.9861 150.367 99.6261 150.823 100.403Z" fill="var(--fill-0, #B9876C)"/>
<path id="Vector_15" d="M258.599 82.1927C255.461 81.6711 253.888 80.3297 252.193 76.6038C253.393 76.5488 254.433 76.522 255.469 76.45C260.197 76.1215 265.042 76.3195 269.629 75.3328C279.522 73.2044 286.391 67.0768 288.857 57.2777C291.415 47.1146 288.109 38.4294 279.98 31.6608C279.592 31.338 279.208 31.0113 278.742 30.4952C284.103 31.1081 292.633 41.3777 293.42 49.408C295.162 67.1916 281.183 77.7184 266.556 78.0455C263.249 78.1195 259.938 78.0564 255.872 78.0564C257.026 79.7721 257.774 80.8847 258.599 82.1927Z" fill="var(--fill-0, #B9886D)"/>
<path id="Vector_16" d="M270.212 139.359C271.812 139.136 273.421 138.967 275.009 138.682C286.238 136.668 293.692 130.27 296.661 119.311C299.683 108.154 296.618 98.4781 288.322 90.4327C287.897 90.0213 287.322 89.764 286.762 89.2398C288.462 89.9054 290.502 90.4421 291.927 91.6794C301.346 99.8601 304.324 112.786 299.597 124.129C294.891 135.424 284.326 141.552 270.46 140.641C270.203 140.055 270.208 139.707 270.212 139.359Z" fill="var(--fill-0, #BB8C71)"/>
<path id="Vector_17" d="M320.9 139.872C324.271 139.505 327.566 139.289 330.861 139.075C329.644 137.669 328.177 136.399 327.291 134.809C326.617 133.598 326.113 131.802 326.503 130.571C330.826 116.941 335.338 103.37 340.153 89.8379C341.426 90.2118 342.344 90.5315 343.262 90.8513C339.437 102.822 335.878 114.887 331.673 126.724C329.673 132.351 329.519 136.861 334.878 140.825C330.212 140.825 325.546 140.826 320.88 140.792C320.859 140.792 320.842 140.289 320.9 139.872ZM321.734 140.132L321.615 140.057C321.615 140.057 321.628 140.206 321.734 140.132Z" fill="var(--fill-0, #BB8B6F)"/>
<path id="Vector_18" d="M34.2011 15.2333C32.9249 15.117 31.6486 15.0008 29.8291 14.8351C32.2581 10.0273 34.3963 5.50067 36.8233 1.13275C37.8328 -0.684083 44.3446 -0.242351 46.3255 1.9353C48.4703 6.36258 50.4455 10.3902 52.4737 14.526C51.58 14.7772 51.0086 14.9378 50.4373 15.0984C47.9801 15.5315 46.5193 14.4637 45.7051 12.1754C45.347 11.169 44.6678 10.2756 43.9486 9.005C43.1173 7.19765 42.4716 5.71621 41.5376 3.57288C39.8046 7.01042 38.5342 9.80587 36.997 12.4478C36.3585 13.5452 35.1503 14.3147 34.2011 15.2333Z" fill="var(--fill-0, #FDFBF9)"/>
<path id="Vector_19" d="M269.929 139.332C270.207 139.707 270.202 140.054 270.184 140.572C255.795 140.774 241.42 140.805 226.753 140.649C226.438 140.268 226.429 140.074 226.435 139.879C226.435 139.879 226.538 139.672 226.561 139.559C240.938 139.399 255.292 139.351 269.929 139.332Z" fill="var(--fill-0, #B0795D)"/>
<path id="Vector_20" d="M34.2406 15.4648C35.1511 14.314 36.3593 13.5445 36.9979 12.4471C38.5351 9.80523 39.8055 7.00978 41.5384 3.57224C42.4725 5.71557 43.1181 7.19701 43.765 8.89695C42.9252 10.5844 42.0336 12.0274 41.2533 13.5276C39.5787 16.7471 37.989 17.263 34.2406 15.4648Z" fill="var(--fill-0, #B78569)"/>
<path id="Vector_21" d="M50.5331 15.3242C51.0092 14.9365 51.5806 14.7759 52.4743 14.5247C50.446 10.3888 48.4709 6.36126 46.4484 2.13543C48.6334 1.40827 49.9128 2.30862 50.8159 4.39456C52.47 8.21535 54.3599 11.9352 56.1514 15.6972C56.0114 15.9835 55.8715 16.2698 55.7315 16.556C54.0304 16.2211 52.3294 15.8862 50.5331 15.3242Z" fill="var(--fill-0, #B9876C)"/>
<path id="Vector_22" d="M343.544 90.8279C342.343 90.5298 341.425 90.2101 340.353 89.7436C349.959 89.5349 359.721 89.473 369.802 89.6899C370.163 90.1248 370.204 90.2809 370.245 90.4369C363.771 90.5524 357.296 90.6766 350.821 90.7786C348.49 90.8153 346.159 90.7986 343.544 90.8279Z" fill="var(--fill-0, #B0795D)"/>
<path id="Vector_23" d="M117.399 138.29C117.634 138.085 117.991 138.055 118.617 138.003C119.041 138.049 119.167 138.152 119.304 138.634C119.34 139.589 119.336 140.199 119.331 140.809C115.997 140.867 112.663 140.956 109.329 140.942C108.887 140.94 108.447 140.409 108.028 139.928C111.192 139.549 114.332 139.367 117.472 139.173C117.537 139.169 117.649 139.029 117.644 138.958C117.633 138.792 117.566 138.629 117.399 138.29Z" fill="var(--fill-0, #BB8C71)"/>
<path id="Vector_24" d="M119.529 140.848C119.335 140.199 119.339 139.589 119.355 138.745C119.734 138.781 120.101 139.051 120.529 139.671C120.569 140.285 120.548 140.549 120.528 140.813C120.261 140.838 119.994 140.862 119.529 140.848Z" fill="var(--fill-0, #BA896D)"/>
<path id="Vector_25" d="M120.716 140.867C120.549 140.551 120.57 140.287 120.615 139.823C121.195 139.838 121.75 140.052 123.075 140.563C121.852 140.764 121.378 140.842 120.716 140.867Z" fill="var(--fill-0, #BB8C71)"/>
<path id="Vector_26" d="M384.493 139.704C384.647 140.006 384.642 140.278 384.64 140.683C384.31 140.559 383.975 140.303 383.669 139.896C383.91 139.721 384.122 139.697 384.493 139.704Z" fill="var(--fill-0, #BB8C71)"/>
<path id="Vector_27" d="M226.261 139.894C226.43 140.074 226.439 140.269 226.477 140.606C226.066 140.7 225.639 140.652 225.213 140.603C225.503 140.372 225.794 140.141 226.261 139.894Z" fill="var(--fill-0, #BB8C71)"/>
<path id="Vector_28" d="M402.416 140.856C402.26 140.609 402.265 140.393 402.271 140.012C402.552 140.043 402.832 140.236 403.112 140.43C402.934 140.582 402.755 140.734 402.416 140.856Z" fill="var(--fill-0, #BB8C71)"/>
<path id="Vector_29" d="M259.087 82.7452C258.973 82.8205 258.818 82.7379 258.666 82.4659C258.77 82.4314 258.896 82.535 259.087 82.7452Z" fill="var(--fill-0, #B9886D)"/>
<path id="Vector_30" d="M370.432 90.3942C370.205 90.283 370.164 90.127 370.088 89.7312C370.291 89.61 370.529 89.7286 370.871 90.027C370.856 90.2543 370.737 90.3018 370.432 90.3942Z" fill="var(--fill-0, #BB8B6F)"/>
<path id="Vector_31" d="M248.693 77.7526C246.914 78.001 245.078 78.1954 243.274 78.037C240.788 77.8188 240.204 78.8944 240.211 81.1865C240.271 99.2182 240.227 117.25 240.178 135.527C238.962 135.867 237.783 135.963 236.37 136.077C236.37 116.136 236.37 96.4782 236.37 76.4906C240.115 76.4906 243.733 76.4547 247.35 76.5369C247.791 76.547 248.218 77.191 248.693 77.7526Z" fill="var(--fill-0, #B78569)"/>
<path id="Vector_32" d="M265.87 30.1075C258.726 30.3219 251.434 30.3482 244.142 30.3685C239.918 30.3802 239.921 30.3759 239.91 34.4583C239.875 47.1511 239.837 59.844 239.729 72.7968C238.652 73.0567 237.647 73.0567 236.399 73.0567C236.399 58.396 236.399 43.8765 236.399 28.9859C242.924 28.9859 249.371 28.8855 255.814 29.0276C259.122 29.1005 262.42 29.6065 265.87 30.1075Z" fill="var(--fill-0, #B68368)"/>
<path id="Vector_33" d="M274.796 88.3763C269.844 88.8984 264.704 89.122 259.642 86.8473C264.517 87.2476 269.553 87.762 274.796 88.3763Z" fill="var(--fill-0, #B9876C)"/>
<path id="Vector_34" d="M266.906 30.3645C266.779 30.411 266.458 30.443 266.041 30.3707C266.201 30.2942 266.457 30.3221 266.906 30.3645Z" fill="var(--fill-0, #B68368)"/>
<path id="Vector_35" d="M464.596 30.3134C459.874 30.5275 454.951 30.66 450.028 30.7368C446.998 30.7841 443.958 30.8924 440.94 30.7029C438.281 30.5359 438.032 31.9226 438.038 34.0173C438.082 48.8863 438.053 63.7556 438.046 78.8971C436.844 79.1694 435.643 79.1694 434.222 79.1694C434.222 62.5528 434.222 45.9834 434.222 28.967C436.183 28.967 438.07 28.9664 439.957 28.9671C445.835 28.9694 451.717 28.8603 457.59 29.0312C459.868 29.0974 462.127 29.7971 464.596 30.3134Z" fill="var(--fill-0, #BA8B6F)"/>
<path id="Vector_36" d="M41.2374 47.6383C40.571 49.4468 39.8323 50.9842 39.3126 52.5918C35.912 63.109 32.5588 73.6414 29.1632 84.3939C27.857 84.619 26.5778 84.619 24.9196 84.619C29.6617 69.9138 34.3166 55.479 38.9715 41.0441C39.216 41.0462 39.4604 41.0484 39.7048 41.0505C40.2253 43.1669 40.7458 45.2833 41.2374 47.6383Z" fill="var(--fill-0, #BA896D)"/>
<path id="Vector_37" d="M357.182 48.8101C355.433 53.9789 353.618 58.8734 351.981 63.8262C349.61 71 347.368 78.2159 345.018 85.6286C343.771 85.8433 342.577 85.8433 340.867 85.8433C345.602 71.097 350.262 56.5828 354.922 42.0686C355.162 42.0211 355.403 41.9735 355.644 41.9259C356.161 44.1379 356.678 46.3499 357.182 48.8101Z" fill="var(--fill-0, #BB8B6F)"/>
<path id="Vector_38" d="M321.681 140.17C321.628 140.207 321.615 140.057 321.615 140.057C321.615 140.057 321.734 140.133 321.681 140.17Z" fill="var(--fill-0, #E2D2B0)"/>
</g>
</svg>
