<svg preserveAspectRatio="none" width="100%" height="100%" overflow="visible" style="display: block;" viewBox="0 0 24.4898 25" fill="none" xmlns="http://www.w3.org/2000/svg">
<g id="Instagram">
<path id="Vector" d="M8.16167 2.5C5.01147 2.5 2.44898 5.11829 2.44898 8.33496V16.6683C2.44898 19.8841 5.01384 22.5 8.16486 22.5H16.3281C19.4783 22.5 22.0408 19.8817 22.0408 16.665V8.33171C22.0408 5.11587 19.476 2.5 16.3249 2.5H8.16167ZM17.9592 5.83333C18.4098 5.83333 18.7755 6.20667 18.7755 6.66667C18.7755 7.12667 18.4098 7.5 17.9592 7.5C17.5086 7.5 17.1429 7.12667 17.1429 6.66667C17.1429 6.20667 17.5086 5.83333 17.9592 5.83333ZM12.2449 7.5C14.9461 7.5 17.1429 9.7425 17.1429 12.5C17.1429 15.2575 14.9461 17.5 12.2449 17.5C9.54367 17.5 7.34694 15.2575 7.34694 12.5C7.34694 9.7425 9.54367 7.5 12.2449 7.5ZM12.2449 9.16667C11.3789 9.16667 10.5483 9.51786 9.93598 10.143C9.32361 10.7681 8.97959 11.6159 8.97959 12.5C8.97959 13.3841 9.32361 14.2319 9.93598 14.857C10.5483 15.4821 11.3789 15.8333 12.2449 15.8333C13.1109 15.8333 13.9415 15.4821 14.5538 14.857C15.1662 14.2319 15.5102 13.3841 15.5102 12.5C15.5102 11.6159 15.1662 10.7681 14.5538 10.143C13.9415 9.51786 13.1109 9.16667 12.2449 9.16667Z" fill="var(--fill-0, white)"/>
</g>
</svg>
