<svg preserveAspectRatio="none" width="100%" height="100%" overflow="visible" style="display: block;" viewBox="0 0 233 66" fill="none" xmlns="http://www.w3.org/2000/svg">
<g id="Frame 279">
<path id="Vector" d="M69.4437 56.6634C69.1781 56.971 68.9125 57.2785 68.5255 57.7266C67.5042 55.0189 66.5079 52.3949 65.524 49.7663C62.3152 41.194 59.1137 32.619 55.8973 24.0495C55.7191 23.5746 55.4314 23.14 55.0891 22.5431C54.5067 20.7038 54.0299 19.008 53.5531 17.3122C53.4179 17.3486 53.2826 17.3851 53.1474 17.4216C53.1474 19.022 53.1474 20.6224 53.1474 22.2228C53.1474 35.0017 53.155 47.7806 53.1384 60.5594C53.1362 62.2572 53.4649 63.7429 55.1489 64.7311C55.2271 64.8899 55.2589 64.966 55.2639 65.0439C55.2661 65.077 55.2139 65.1427 55.1834 65.1445C53.7083 65.2352 52.2329 65.3205 50.7575 65.4064C50.2544 65.2988 49.7513 65.1912 49.0471 65.0406C51.4636 63.3075 51.4869 60.8509 51.4802 58.3144C51.4448 44.7647 51.4575 31.2148 51.4695 17.6651C51.4715 15.4373 51.1197 13.4048 48.82 12.2346C48.8678 12.079 48.9157 11.9234 48.9635 11.7679C51.3923 11.97 53.821 12.1721 56.3187 12.5625C56.4165 12.888 56.4279 13.0315 56.4765 13.1614C60.8796 24.9269 65.2848 36.6917 69.6953 48.4546C69.8143 48.772 69.9916 49.068 70.3135 49.724C70.5783 48.5883 70.7569 47.8222 70.9355 47.056C72.0891 44.3321 73.2917 41.6274 74.3871 38.8808C77.8279 30.2539 81.2191 21.6076 84.6718 12.9855C84.8423 12.5596 85.398 12.0164 85.7992 11.9955C87.7431 11.894 89.6957 11.9434 91.6447 11.9678C91.8436 11.9702 92.0401 12.1621 92.1837 12.3836C90.2593 13.0736 89.4516 14.3407 89.4508 16.7715C89.4466 30.5333 89.4523 44.2951 89.4455 58.057C89.4442 60.6662 89.0441 63.3879 92.0458 65.0457C91.9369 65.1673 91.828 65.289 91.7192 65.4107C89.3047 65.4107 86.8903 65.4107 84.4758 65.4107C83.8908 65.2975 83.3057 65.1842 82.4636 65.0212C84.866 63.6233 85.0135 61.5011 85.0017 59.1913C84.9441 47.9267 84.9768 36.6616 84.9723 25.3967C84.972 24.7385 84.9255 24.0803 84.872 23.1771C84.9672 21.2163 85.0909 19.5004 85.2146 17.7846C85.0619 17.7684 84.9091 17.7521 84.7564 17.7359C84.6316 18.0316 84.5011 18.3251 84.3827 18.6233C82.1003 24.3729 79.8397 30.1311 77.5317 35.8706C75.5079 40.9032 73.4001 45.9028 71.394 50.9422C70.6495 52.8124 70.0884 54.7543 69.4437 56.6634Z" fill="var(--fill-0, #FDFCFA)"/>
<path id="Vector_2" d="M106.44 65.2726C105.688 65.2279 104.936 65.1832 103.861 65.1194C106.546 63.5757 106.658 61.2376 106.651 58.7628C106.613 45.0908 106.612 31.4186 106.653 17.7466C106.66 15.4423 106.293 13.4248 103.644 12.0591C104.494 12.0015 104.89 11.9517 105.286 11.9512C109.995 11.946 114.706 12.0145 119.414 11.9278C123.358 11.8552 127.201 12.1076 130.852 14.2307C131.16 14.5151 131.341 14.668 131.523 14.8191C135.342 17.9874 136.894 22.0528 135.693 26.81C134.535 31.3968 131.308 34.265 126.66 35.2613C124.506 35.7231 122.23 35.6305 120.009 35.7843C119.522 35.8179 119.034 35.8305 118.47 35.8563C119.266 37.6003 120.005 38.2282 121.515 38.5638C121.515 38.5638 121.518 38.5431 121.521 38.6024C121.582 38.7279 121.655 38.7666 121.742 38.7776C123.619 38.9066 125.498 39.0136 127.372 39.1699C129.954 39.3851 132.347 40.1967 134.649 41.6921C134.972 42.0171 135.242 42.1376 135.441 42.3301C139.338 46.0961 140.778 50.6251 139.359 55.8475C137.964 60.9775 134.462 63.9722 129.187 64.9149C128.441 65.0482 127.685 65.1275 126.801 65.2191C119.926 65.2284 113.183 65.2505 106.44 65.2726ZM124.94 14.1908C124.94 14.1908 124.964 14.1814 124.825 14.0029C123.274 13.8577 121.725 13.6208 120.171 13.5867C117.144 13.5202 114.115 13.5672 111.051 13.5672C111.051 20.5372 111.051 27.3336 111.051 34.1961C111.637 34.1961 112.109 34.1961 112.854 34.2396C115.655 34.2476 118.457 34.295 121.258 34.2535C124.638 34.2035 127.554 33.2012 129.124 29.935C130.238 27.6163 131.01 25.1638 130.64 22.566C130.143 19.0748 129.105 15.8372 125.29 14.2056C125.17 14.1926 125.05 14.1795 124.94 14.1908ZM113.079 63.6397C117.316 63.6641 121.554 63.7488 125.79 63.6941C129.24 63.6494 131.624 61.8601 133.012 58.7946C134.937 54.5415 135.045 50.1898 133.3 45.8741C132.516 43.9346 131.336 42.193 128.991 41.3205C126.625 41.0797 124.259 40.8389 121.683 40.5187C119.408 39.9597 117.777 38.6393 116.806 36.2958C116.602 36.1319 116.402 35.8304 116.194 35.8257C114.496 35.7872 112.796 35.804 111.037 35.804C111.037 45.1599 111.037 54.3614 111.037 63.6955C111.701 63.642 112.254 63.5973 113.079 63.6397Z" fill="var(--fill-0, #FEFDFD)"/>
<path id="Vector_3" d="M227.295 65.2076C225.943 65.4559 225.27 64.7183 224.642 63.637C220.239 56.0562 215.784 48.5045 211.342 40.9463C211.103 40.541 210.823 40.1603 210.479 39.6036C210.232 39.2372 210.071 38.8635 209.903 38.86C207.928 38.8191 205.953 38.8338 203.874 38.8338C203.874 39.5496 203.874 40.0628 203.874 40.576C203.874 46.7611 203.927 52.947 203.846 59.131C203.815 61.4604 204.119 63.542 206.302 64.9724C206.247 65.1158 206.193 65.2591 206.139 65.4025C203.694 65.4025 201.249 65.4025 198.805 65.4025C198.305 65.2943 197.805 65.1862 197.057 65.0242C199.577 63.4549 199.58 61.0895 199.574 58.6416C199.537 44.9671 199.53 31.2925 199.582 17.6181C199.591 15.3273 199.123 13.414 196.602 12.0684C197.389 12.0081 197.778 11.9526 198.168 11.9522C203.306 11.9465 208.447 12.0363 213.582 11.9197C217.355 11.8341 220.847 12.5339 224.101 14.7776C228.468 18.6638 229.894 23.4512 228.626 28.7561C227.014 35.4993 222.102 38.5494 215.14 38.8434C216.962 41.9513 218.635 44.8486 220.349 47.7222C223.833 53.5633 227.088 59.5424 230.757 65.2076C229.76 65.2076 228.527 65.2076 227.295 65.2076ZM206.048 37.0963C209.047 37.107 212.046 37.1263 215.045 37.1259C217.991 37.1256 220.136 35.7437 221.538 33.2428C224.217 28.4648 224.271 23.5163 222.274 18.5153C221.523 16.6358 220.285 15.0922 218.153 14.1398C217.088 13.9474 216.026 13.6198 214.956 13.5888C212.197 13.5088 209.434 13.5599 206.673 13.5588C205.787 13.5585 204.9 13.5588 203.979 13.5588C203.979 21.5239 203.979 29.2798 203.979 37.0578C204.647 37.0578 205.211 37.0578 206.048 37.0963Z" fill="var(--fill-0, #FEFDFD)"/>
<path id="Vector_4" d="M2.09528 64.9497C1.4993 64.88 0.90331 64.8104 0 64.7048C3.1474 62.887 3.22083 59.7212 4.11817 57.0413C7.1747 47.9128 10.0642 38.7295 13.0265 29.57C14.8562 23.9125 16.6943 18.2577 18.5465 12.6074C19.0316 11.1276 19.742 10.96 20.8691 12.2157C25.9342 27.9822 30.9611 43.5415 35.985 59.1017C36.628 61.0932 37.0294 63.2065 39.1073 64.5182C36.5037 64.6595 34.1438 64.7875 31.784 64.9156C31.1901 64.8557 30.5962 64.7958 29.51 64.6863C32.7637 63.0166 32.0287 60.8177 31.2155 58.4602C29.3695 53.1089 27.6582 47.712 25.8315 42.1536C25.3535 41.7467 24.9386 41.328 24.5184 41.3228C20.5188 41.2727 16.5178 41.3308 12.5186 41.2671C11.4564 41.2502 11.0344 41.6392 10.7308 42.5977C8.9051 48.361 7.05434 54.1173 5.13011 59.8489C4.60075 61.4257 5.02529 62.603 6.12779 63.6822C6.40838 63.9569 6.70209 64.2184 7.01495 64.5094C5.29446 64.6634 3.69487 64.8065 2.09528 64.9497ZM13.9592 39.6532C17.6112 39.6532 21.2632 39.6532 25.0716 39.6532C24.9038 39.0585 24.7923 38.6116 24.6519 38.1738C23.2109 33.6815 21.7751 29.1874 20.3117 24.7022C20.0559 23.9183 19.6788 23.1733 19.385 22.1869C19.1404 21.1963 18.8959 20.2056 18.6514 19.215C18.5366 19.214 18.4218 19.213 18.307 19.212C16.1203 25.9687 13.9336 32.7255 11.7059 39.6087C12.4849 39.6087 13.0858 39.6087 13.9592 39.6532Z" fill="var(--fill-0, #FDFCFA)"/>
<path id="Vector_5" d="M180.245 65.4134C179.621 65.3252 178.996 65.237 178.372 65.1486C180.747 63.156 180.852 62.7922 179.865 59.7365C178.161 54.4578 176.448 49.182 174.746 43.9024C174.588 43.4125 174.487 42.9045 174.265 42.2303C174.059 42.0002 173.947 41.9447 173.701 41.8709C168.982 41.8816 164.396 41.9106 159.717 41.9829C157.527 48.386 155.408 54.7382 153.377 61.1182C153.194 61.6945 153.43 62.535 153.747 63.1018C154.163 63.8462 154.852 64.4408 155.424 65.0988C153.876 65.199 152.329 65.3002 150.781 65.4014C150.225 65.3014 149.669 65.2013 149.05 65.09C151.759 62.3424 152.12 58.5741 153.285 55.1735C155.931 47.4447 158.374 39.6478 160.894 31.8765C162.933 25.5877 164.962 19.2959 166.996 13.0055C167.391 11.7833 167.934 11.6278 169.274 12.5669C169.489 13.3485 169.649 13.9339 169.836 14.511C174.752 29.721 179.674 44.9289 184.583 60.1409C185.173 61.9663 185.631 63.8473 187.412 65.0764C186.757 65.2031 186.202 65.1863 185.649 65.2062C183.997 65.2658 182.345 65.3397 180.619 65.3938C180.444 65.3908 180.345 65.4021 180.245 65.4134ZM162.323 40.2154C166.002 40.2154 169.68 40.2154 173.445 40.2154C173.392 39.8404 173.393 39.6543 173.339 39.4851C171.656 34.1955 169.971 28.9065 168.269 23.623C168.19 23.3772 167.949 23.1825 167.795 22.7317C167.552 21.6963 167.309 20.6609 167.066 19.6255C166.953 19.6478 166.84 19.67 166.727 19.6923C164.538 26.4862 162.349 33.28 160.125 40.1826C160.928 40.1826 161.489 40.1826 162.323 40.2154Z" fill="var(--fill-0, #FDFCFA)"/>
<path id="Vector_6" d="M84.4392 65.4794C86.8905 65.411 89.3049 65.411 91.7194 65.411C91.8283 65.2893 91.9372 65.1676 92.0461 65.0459C89.0443 63.3881 89.4445 60.6664 89.4458 58.0572C89.4526 44.2954 89.4469 30.5336 89.4511 16.7718C89.4518 14.341 90.2595 13.0738 92.2312 12.4816C92.8304 12.5362 93.3284 12.6105 94.268 12.7505C91.1208 14.2311 91.2028 16.756 91.2063 19.2959C91.2254 32.8746 91.2416 46.4534 91.1904 60.032C91.1815 62.3956 91.6597 64.4076 94.1783 65.9678C90.6856 65.9678 87.6253 65.97 84.5651 65.9503C84.51 65.9499 84.4566 65.6879 84.4392 65.4794Z" fill="var(--fill-0, #B78569)"/>
<path id="Vector_7" d="M227.291 65.3191C228.527 65.2076 229.759 65.2076 230.756 65.2076C227.088 59.5423 223.833 53.5632 220.349 47.7221C218.635 44.8485 216.961 41.9512 215.14 38.8434C222.102 38.5493 227.014 35.4992 228.626 28.756C229.894 23.4511 228.467 18.6637 224.164 14.852C225.023 15.2505 226.053 15.5859 226.761 16.2555C232.871 22.0303 232.175 32.4285 225.215 37.1622C223.49 38.3358 221.188 38.6889 219.134 39.3684C218.574 39.5536 217.952 39.5539 217.105 39.6753C218.485 42.0346 219.744 44.1835 220.999 46.3352C224.239 51.8908 227.457 57.4592 230.734 62.9933C231.341 64.0171 232.182 64.9041 233 65.9641C231.312 65.9641 229.581 65.9807 227.851 65.9407C227.66 65.9362 227.475 65.6085 227.291 65.3191Z" fill="var(--fill-0, #B9886D)"/>
<path id="Vector_8" d="M31.7702 65.001C34.1441 64.7877 36.5039 64.6596 39.1075 64.5184C37.0296 63.2066 36.6283 61.0933 35.9853 59.1018C30.9613 43.5416 25.9345 27.9824 20.9039 12.3134C22.1635 11.9187 22.603 12.5902 22.957 13.6917C27.9773 29.3127 33.0399 44.9203 38.0907 60.5317C38.6672 62.3137 39.1253 64.161 40.855 65.4094C37.8829 65.4094 34.9108 65.4113 31.9388 65.3959C31.8773 65.3956 31.8169 65.194 31.7702 65.001Z" fill="var(--fill-0, #B9876C)"/>
<path id="Vector_9" d="M180.694 65.4082C182.346 65.3399 183.997 65.2659 185.649 65.2063C186.203 65.1864 186.757 65.2032 187.413 65.0765C185.632 63.8474 185.173 61.9664 184.584 60.1411C179.674 44.9291 174.752 29.7211 169.836 14.5111C169.65 13.934 169.49 13.3486 169.33 12.6651C170.51 12.389 170.991 12.97 171.334 14.0389C176.514 30.1631 181.718 46.2797 186.983 62.3766C187.332 63.4432 188.218 64.3373 188.912 65.463C188.968 65.7158 188.965 65.8173 188.963 65.9187C186.293 65.9307 183.623 65.9426 180.82 65.8722C180.689 65.6626 180.691 65.5354 180.694 65.4082Z" fill="var(--fill-0, #B9886D)"/>
<path id="Vector_10" d="M69.533 56.715C70.0887 54.7543 70.6498 52.8124 71.3943 50.9422C73.4004 45.9028 75.5082 40.9032 77.532 35.8706C79.84 30.1311 82.1006 24.3729 84.383 18.6233C84.5014 18.3251 84.6319 18.0316 84.7567 17.7359C84.9094 17.7521 85.0622 17.7684 85.2149 17.7846C85.0912 19.5004 84.9675 21.2163 84.8245 23.0457C84.1814 24.5081 83.4931 25.8318 82.9444 27.21C79.0564 36.977 75.198 46.7555 71.3263 56.5289C71.0924 57.1193 70.8256 57.6969 70.462 58.5404C70.0905 57.7559 69.8562 57.2613 69.533 56.715Z" fill="var(--fill-0, #BA896D)"/>
<path id="Vector_11" d="M55.0916 64.6491C53.4648 63.7428 53.1361 62.2571 53.1383 60.5593C53.155 47.7805 53.1474 35.0016 53.1474 22.2227C53.1474 20.6223 53.1474 19.0219 53.1474 17.4215C53.2826 17.385 53.4178 17.3485 53.553 17.3121C54.0298 19.0079 54.5067 20.7037 54.993 22.5155C54.9594 23.1915 54.8792 23.7514 54.8788 24.3114C54.8715 36.456 54.8476 48.6007 54.912 60.7449C54.9184 61.9608 55.4705 63.1738 55.6821 64.4975C55.4271 64.621 55.2593 64.635 55.0916 64.6491Z" fill="var(--fill-0, #BA896D)"/>
<path id="Vector_12" d="M198.776 65.4738C201.25 65.4028 203.694 65.4028 206.139 65.4028C206.193 65.2594 206.248 65.1161 206.302 64.9727C204.119 63.5423 203.815 61.4607 203.846 59.1313C203.927 52.9472 203.874 46.7614 203.874 40.5762C203.874 40.0631 203.874 39.5499 203.874 38.8341C205.953 38.8341 207.928 38.8194 209.903 38.8603C210.071 38.8638 210.232 39.2375 210.393 39.5563C209.249 39.6522 208.107 39.6538 206.966 39.6026C206.122 39.5648 205.775 39.8861 205.778 40.751C205.799 47.7365 205.776 54.7222 205.806 61.7077C205.813 63.4555 206.842 64.6888 208.443 65.792C207.911 65.89 207.624 65.9876 207.337 65.9889C204.765 66.001 202.193 66.0106 199.622 65.9764C199.328 65.9725 199.039 65.6953 198.776 65.4738Z" fill="var(--fill-0, #BB8C71)"/>
<path id="Vector_13" d="M2.12763 65.0491C3.69497 64.806 5.29456 64.6629 7.01505 64.5089C6.7022 64.2179 6.40849 63.9564 6.12789 63.6817C5.0254 62.6025 4.60085 61.4252 5.13022 59.8484C7.05445 54.1168 8.9052 48.3605 10.7309 42.5972C11.0345 41.6387 11.4565 41.2497 12.5187 41.2666C16.5179 41.3303 20.5189 41.2722 24.5185 41.3223C24.9387 41.3275 25.3536 41.7462 25.7438 42.0958C21.7192 42.1921 17.7215 42.1384 13.7249 42.1811C13.3209 42.1855 12.6929 42.6966 12.5573 43.1006C10.5753 49.0086 8.64478 54.9338 6.73781 60.8661C6.24841 62.3886 7.14967 63.4811 8.12142 64.4931C8.36824 64.7501 8.69736 64.9296 8.98866 65.1447C8.96782 65.2788 8.94698 65.4129 8.92614 65.547C6.67072 65.4144 4.4153 65.2817 2.12763 65.0491Z" fill="var(--fill-0, #BA896D)"/>
<path id="Vector_14" d="M70.8501 46.9969C70.7569 47.8227 70.5783 48.5888 70.3135 49.7245C69.9916 49.0685 69.8143 48.7725 69.6953 48.4551C65.2849 36.6923 60.8796 24.9274 56.4765 13.1619C56.4279 13.032 56.4165 12.8885 56.3965 12.6502C57.4769 12.4155 58.0038 12.9062 58.3764 13.9105C62.3509 24.6251 66.3706 35.3234 70.3801 46.0253C70.4958 46.3339 70.636 46.6335 70.8501 46.9969Z" fill="var(--fill-0, #B9876C)"/>
<path id="Vector_15" d="M121.479 38.4732C120.005 38.229 119.266 37.6011 118.47 35.8571C119.034 35.8313 119.522 35.8188 120.009 35.7851C122.23 35.6313 124.506 35.724 126.66 35.2621C131.308 34.2659 134.534 31.3977 135.693 26.8108C136.894 22.0536 135.341 17.9882 131.523 14.8199C131.341 14.6688 131.16 14.5159 130.942 14.2744C133.46 14.5612 137.467 19.3683 137.836 23.1272C138.655 31.4514 132.088 36.3788 125.217 36.5319C123.663 36.5666 122.108 36.537 120.198 36.537C120.74 37.3401 121.092 37.8609 121.479 38.4732Z" fill="var(--fill-0, #B9886D)"/>
<path id="Vector_16" d="M126.934 65.2319C127.686 65.1276 128.442 65.0483 129.188 64.915C134.463 63.9723 137.964 60.9776 139.359 55.8476C140.779 50.6252 139.339 46.0961 135.441 42.3302C135.242 42.1376 134.972 42.0172 134.709 41.7718C135.507 42.0834 136.466 42.3346 137.135 42.9138C141.56 46.743 142.959 52.7932 140.738 58.1029C138.527 63.39 133.565 66.2582 127.051 65.8317C126.93 65.5576 126.932 65.3947 126.934 65.2319Z" fill="var(--fill-0, #BB8C71)"/>
<path id="Vector_17" d="M150.745 65.4718C152.329 65.3004 153.877 65.1992 155.425 65.099C154.853 64.441 154.164 63.8464 153.748 63.102C153.431 62.5352 153.194 61.6947 153.378 61.1184C155.408 54.7383 157.528 48.3862 159.79 42.0518C160.388 42.2268 160.819 42.3765 161.25 42.5261C159.453 48.1296 157.782 53.7767 155.806 59.3174C154.867 61.9515 154.794 64.0627 157.312 65.9181C155.12 65.9181 152.928 65.9186 150.736 65.9026C150.726 65.9026 150.718 65.6674 150.745 65.4718ZM151.137 65.5935L151.081 65.5586C151.081 65.5586 151.087 65.6283 151.137 65.5935Z" fill="var(--fill-0, #BB8B6F)"/>
<path id="Vector_18" d="M16.0663 7.13048C15.4667 7.07607 14.8672 7.02165 14.0124 6.94407C15.1535 4.69365 16.1579 2.57478 17.298 0.530222C17.7722 -0.320209 20.8312 -0.113441 21.7618 0.905887C22.7693 2.97823 23.6972 4.86348 24.65 6.79941C24.2301 6.91699 23.9617 6.99216 23.6933 7.06733C22.5391 7.27006 21.8528 6.77023 21.4704 5.69914C21.3021 5.22804 20.983 4.80986 20.6452 4.21511C20.2547 3.36911 19.9514 2.67567 19.5126 1.67241C18.6985 3.28147 18.1018 4.58998 17.3797 5.82661C17.0797 6.34029 16.5121 6.70049 16.0663 7.13048Z" fill="var(--fill-0, #FDFBF9)"/>
<path id="Vector_19" d="M126.801 65.219C126.932 65.3946 126.93 65.5574 126.921 65.7998C120.162 65.8941 113.409 65.9086 106.519 65.8358C106.371 65.6576 106.367 65.5665 106.37 65.4752C106.37 65.4752 106.418 65.3783 106.429 65.3254C113.183 65.2504 119.926 65.2283 126.801 65.219Z" fill="var(--fill-0, #B0795D)"/>
<path id="Vector_20" d="M16.0848 7.23883C16.5125 6.70019 17.0801 6.33999 17.3801 5.82631C18.1022 4.58968 18.6989 3.28117 19.513 1.67211C19.9518 2.67537 20.2551 3.36881 20.559 4.16453C20.1645 4.95439 19.7456 5.62984 19.3791 6.33208C18.5924 7.83908 17.8457 8.08053 16.0848 7.23883Z" fill="var(--fill-0, #B78569)"/>
<path id="Vector_21" d="M23.7383 7.17303C23.962 6.99154 24.2304 6.91637 24.6502 6.79879C23.6974 4.86286 22.7696 2.97761 21.8195 0.999564C22.8459 0.659188 23.4469 1.08063 23.8712 2.05703C24.6482 3.84548 25.536 5.5867 26.3776 7.34761C26.3118 7.48162 26.2461 7.61563 26.1803 7.74964C25.3812 7.59287 24.5821 7.4361 23.7383 7.17303Z" fill="var(--fill-0, #B9876C)"/>
<path id="Vector_22" d="M161.383 42.5152C160.818 42.3757 160.387 42.226 159.883 42.0076C164.396 41.91 168.982 41.881 173.718 41.9825C173.887 42.1861 173.906 42.2591 173.926 42.3322C170.884 42.3862 167.843 42.4444 164.801 42.4921C163.706 42.5093 162.611 42.5015 161.383 42.5152Z" fill="var(--fill-0, #B0795D)"/>
<path id="Vector_23" d="M55.1491 64.7313C55.2596 64.6354 55.4274 64.6213 55.7215 64.5971C55.9204 64.6187 55.9795 64.6667 56.044 64.8926C56.0609 65.3397 56.0589 65.6252 56.0569 65.9107C54.4906 65.9375 52.9242 65.9796 51.3581 65.9729C51.1504 65.972 50.9437 65.7235 50.7472 65.4981C52.2331 65.3207 53.7085 65.2354 55.1836 65.1448C55.2142 65.1429 55.2663 65.0772 55.2642 65.0441C55.2592 64.9663 55.2273 64.8901 55.1491 64.7313Z" fill="var(--fill-0, #BB8C71)"/>
<path id="Vector_24" d="M56.1496 65.9288C56.0586 65.6249 56.0606 65.3394 56.0681 64.9446C56.2461 64.9615 56.4185 65.0879 56.6195 65.378C56.6383 65.6654 56.6286 65.7889 56.6189 65.9124C56.4935 65.924 56.368 65.9355 56.1496 65.9288Z" fill="var(--fill-0, #BA896D)"/>
<path id="Vector_25" d="M56.7073 65.9379C56.629 65.7898 56.6387 65.6663 56.66 65.4492C56.9323 65.4559 57.1931 65.5562 57.8153 65.7955C57.241 65.8895 57.0182 65.926 56.7073 65.9379Z" fill="var(--fill-0, #BB8C71)"/>
<path id="Vector_26" d="M180.619 65.3932C180.691 65.5347 180.689 65.6619 180.688 65.8515C180.533 65.7938 180.375 65.6738 180.232 65.4833C180.345 65.4015 180.445 65.3902 180.619 65.3932Z" fill="var(--fill-0, #BB8C71)"/>
<path id="Vector_27" d="M106.288 65.4824C106.367 65.5667 106.371 65.6578 106.389 65.8155C106.196 65.8597 105.996 65.8371 105.795 65.8144C105.932 65.7061 106.069 65.5977 106.288 65.4824Z" fill="var(--fill-0, #BB8C71)"/>
<path id="Vector_28" d="M189.038 65.9325C188.965 65.8171 188.967 65.7157 188.97 65.5377C189.102 65.5518 189.234 65.6425 189.365 65.7331C189.281 65.8043 189.198 65.8754 189.038 65.9325Z" fill="var(--fill-0, #BB8C71)"/>
<path id="Vector_29" d="M121.708 38.7318C121.655 38.767 121.582 38.7284 121.511 38.6011C121.559 38.5849 121.618 38.6334 121.708 38.7318Z" fill="var(--fill-0, #B9886D)"/>
<path id="Vector_30" d="M174.014 42.3122C173.907 42.2601 173.887 42.1871 173.852 42.0018C173.947 41.9451 174.059 42.0006 174.22 42.1403C174.213 42.2467 174.157 42.2689 174.014 42.3122Z" fill="var(--fill-0, #BB8B6F)"/>
<path id="Vector_31" d="M116.826 36.3948C115.99 36.5111 115.128 36.6021 114.28 36.528C113.112 36.4258 112.838 36.9293 112.841 38.0022C112.869 46.4426 112.849 54.8831 112.825 63.4382C112.254 63.5974 111.701 63.6421 111.037 63.6956C111.037 54.3615 111.037 45.16 111.037 35.8041C112.796 35.8041 114.496 35.7873 116.194 35.8258C116.402 35.8305 116.602 36.132 116.826 36.3948Z" fill="var(--fill-0, #B78569)"/>
<path id="Vector_32" d="M124.895 14.0929C121.539 14.1932 118.113 14.2055 114.688 14.215C112.704 14.2205 112.705 14.2185 112.7 16.1294C112.683 22.0707 112.665 28.0121 112.614 34.0751C112.109 34.1967 111.637 34.1967 111.051 34.1967C111.051 27.3343 111.051 20.5379 111.051 13.5679C114.115 13.5679 117.144 13.5208 120.171 13.5874C121.724 13.6215 123.274 13.8584 124.895 14.0929Z" fill="var(--fill-0, #B68368)"/>
<path id="Vector_33" d="M129.088 41.3676C126.761 41.612 124.347 41.7167 121.969 40.6519C124.259 40.8393 126.625 41.0801 129.088 41.3676Z" fill="var(--fill-0, #B9876C)"/>
<path id="Vector_34" d="M125.381 14.2132C125.321 14.235 125.171 14.2499 124.975 14.2161C125.05 14.1803 125.17 14.1933 125.381 14.2132Z" fill="var(--fill-0, #B68368)"/>
<path id="Vector_35" d="M218.248 14.1892C216.03 14.2895 213.717 14.3515 211.404 14.3874C209.981 14.4096 208.553 14.4603 207.135 14.3716C205.886 14.2934 205.769 14.9425 205.772 15.923C205.793 22.883 205.779 29.843 205.776 36.9305C205.211 37.058 204.647 37.058 203.979 37.058C203.979 29.28 203.979 21.5241 203.979 13.559C204.901 13.559 205.787 13.5587 206.673 13.5591C209.435 13.5602 212.198 13.5091 214.957 13.5891C216.027 13.6201 217.088 13.9476 218.248 14.1892Z" fill="var(--fill-0, #BA8B6F)"/>
<path id="Vector_36" d="M19.3716 22.2988C19.0586 23.1453 18.7116 23.865 18.4674 24.6174C16.87 29.5404 15.2948 34.4704 13.6997 39.5035C13.086 39.6089 12.4851 39.6089 11.7062 39.6089C13.9338 32.7256 16.1205 25.9689 18.3072 19.2121C18.422 19.2131 18.5368 19.2141 18.6517 19.2151C18.8962 20.2058 19.1407 21.1964 19.3716 22.2988Z" fill="var(--fill-0, #BA896D)"/>
<path id="Vector_37" d="M167.789 22.8473C166.968 25.2667 166.115 27.5578 165.346 29.8761C164.232 33.234 163.179 36.6117 162.075 40.0815C161.489 40.182 160.928 40.182 160.125 40.182C162.349 33.2794 164.538 26.4856 166.727 19.6917C166.84 19.6694 166.953 19.6472 167.066 19.6249C167.309 20.6603 167.553 21.6957 167.789 22.8473Z" fill="var(--fill-0, #BB8B6F)"/>
<path id="Vector_38" d="M151.112 65.6115C151.087 65.629 151.081 65.5587 151.081 65.5587C151.081 65.5587 151.137 65.5939 151.112 65.6115Z" fill="var(--fill-0, #E2D2B0)"/>
</g>
</svg>
