<svg preserveAspectRatio="none" width="100%" height="100%" overflow="visible" style="display: block;" viewBox="0 0 372 106" fill="none" xmlns="http://www.w3.org/2000/svg">
<g id="Frame 279">
<path id="Vector" d="M110.871 91.0049C110.447 91.4988 110.023 91.9927 109.406 92.7124C107.775 88.3637 106.184 84.1493 104.613 79.9276C99.4903 66.16 94.379 52.3881 89.2438 38.625C88.9592 37.8622 88.5 37.1642 87.9535 36.2056C87.0236 33.2515 86.2623 30.528 85.501 27.8044C85.2852 27.8629 85.0693 27.9215 84.8534 27.9801C84.8534 30.5505 84.8534 33.1208 84.8534 35.6912C84.8534 56.2148 84.8655 76.7385 84.839 97.2621C84.8354 99.9889 85.3602 102.375 88.0488 103.962C88.1737 104.217 88.2245 104.339 88.2326 104.464C88.236 104.518 88.1527 104.623 88.1039 104.626C85.7488 104.772 83.3932 104.909 81.0377 105.047C80.2345 104.874 79.4313 104.701 78.3069 104.459C82.165 101.676 82.2022 97.7302 82.1916 93.6564C82.135 71.8948 82.1553 50.1329 82.1745 28.3712C82.1777 24.7932 81.616 21.529 77.9443 19.6494C78.0207 19.3996 78.0971 19.1497 78.1735 18.8999C82.0512 19.2245 85.9289 19.5491 89.9166 20.1762C90.0726 20.6989 90.0909 20.9294 90.1685 21.1379C97.1983 40.0342 104.232 58.9292 111.273 77.8211C111.463 78.3308 111.746 78.8061 112.26 79.8597C112.683 78.0358 112.968 76.8053 113.253 75.5748C115.095 71.2001 117.015 66.8562 118.764 62.4449C124.257 48.5896 129.672 34.7031 135.184 20.8555C135.456 20.1714 136.344 19.2991 136.984 19.2655C140.088 19.1026 143.205 19.1819 146.317 19.2209C146.634 19.2249 146.948 19.5331 147.177 19.8888C144.105 20.9969 142.815 23.0321 142.814 26.9361C142.807 49.0384 142.817 71.1407 142.806 93.243C142.804 97.4335 142.165 101.805 146.957 104.467C146.783 104.663 146.61 104.858 146.436 105.054C142.581 105.054 138.726 105.054 134.871 105.054C133.937 104.872 133.003 104.69 131.659 104.428C135.494 102.183 135.73 98.7745 135.711 95.0649C135.619 76.9732 135.671 58.8808 135.664 40.7887C135.664 39.7315 135.589 38.6744 135.504 37.2238C135.656 34.0746 135.853 31.3189 136.051 28.5631C135.807 28.5371 135.563 28.511 135.319 28.4849C135.12 28.9598 134.912 29.4312 134.723 29.9101C131.079 39.1443 127.469 48.3924 123.784 57.6104C120.553 65.6931 117.188 73.7227 113.985 81.8163C112.797 84.8198 111.901 87.9387 110.871 91.0049Z" fill="var(--fill-0, #FDFCFA)"/>
<path id="Vector_2" d="M169.938 104.832C168.737 104.76 167.537 104.688 165.821 104.586C170.108 102.106 170.287 98.3513 170.276 94.3767C170.214 72.4186 170.213 50.4601 170.279 28.502C170.291 24.8012 169.704 21.561 165.475 19.3676C166.831 19.2751 167.463 19.1951 168.096 19.1944C175.615 19.186 183.136 19.296 190.652 19.1568C196.949 19.0402 203.085 19.4456 208.914 22.8553C209.406 23.3121 209.694 23.5577 209.985 23.8003C216.082 28.8888 218.561 35.4181 216.643 43.0585C214.793 50.4252 209.642 55.0317 202.222 56.6318C198.782 57.3735 195.148 57.2247 191.602 57.4717C190.825 57.5258 190.045 57.5459 189.145 57.5873C190.416 60.3883 191.596 61.3967 194.007 61.9358C194.007 61.9358 194.011 61.9026 194.017 61.9978C194.114 62.1994 194.23 62.2615 194.37 62.2792C197.366 62.4864 200.365 62.6583 203.358 62.9092C207.481 63.2548 211.3 64.5583 214.977 66.96C215.491 67.482 215.923 67.6755 216.241 67.9847C222.463 74.0331 224.762 81.307 222.495 89.6944C220.268 97.9336 214.678 102.743 206.256 104.257C205.065 104.471 203.858 104.599 202.447 104.746C191.469 104.761 180.704 104.796 169.938 104.832ZM199.474 22.7912C199.474 22.7912 199.514 22.7763 199.292 22.4895C196.815 22.2562 194.341 21.8759 191.861 21.821C187.029 21.7142 182.193 21.7897 177.3 21.7897C177.3 32.984 177.3 43.8994 177.3 54.9209C178.236 54.9209 178.989 54.9209 180.179 54.9909C184.652 55.0038 189.125 55.0799 193.597 55.0132C198.992 54.9329 203.649 53.3232 206.154 48.0775C207.933 44.3534 209.166 40.4146 208.576 36.2424C207.783 30.6353 206.125 25.4356 200.034 22.815C199.842 22.7941 199.65 22.7732 199.474 22.7912ZM180.538 102.209C187.303 102.248 194.069 102.385 200.833 102.297C206.34 102.225 210.147 99.3511 212.363 94.4277C215.436 87.597 215.608 80.6079 212.822 73.6766C211.571 70.5616 209.686 67.7645 205.942 66.3633C202.165 65.9765 198.388 65.5898 194.275 65.0755C190.642 64.1776 188.039 62.0571 186.488 58.2932C186.163 58.03 185.843 57.5458 185.512 57.5383C182.8 57.4764 180.086 57.5034 177.277 57.5034C177.277 72.5296 177.277 87.3077 177.277 102.299C178.337 102.213 179.221 102.141 180.538 102.209Z" fill="var(--fill-0, #FEFDFD)"/>
<path id="Vector_3" d="M362.892 104.727C360.733 105.126 359.658 103.942 358.655 102.205C351.625 90.0296 344.514 77.9012 337.421 65.7623C337.041 65.1113 336.592 64.4999 336.043 63.6058C335.649 63.0174 335.392 62.4172 335.123 62.4116C331.971 62.3459 328.817 62.3694 325.498 62.3694C325.498 63.5191 325.498 64.3433 325.498 65.1675C325.498 75.1012 325.583 85.036 325.453 94.968C325.404 98.7091 325.89 102.052 329.375 104.35C329.288 104.58 329.201 104.81 329.114 105.04C325.211 105.04 321.308 105.04 317.405 105.04C316.607 104.867 315.809 104.693 314.614 104.433C318.637 101.912 318.643 98.1134 318.633 94.1819C318.575 72.2199 318.563 50.2576 318.646 28.2958C318.661 24.6165 317.914 21.5437 313.888 19.3826C315.144 19.2857 315.766 19.1966 316.388 19.1959C324.592 19.1869 332.799 19.331 340.998 19.1438C347.021 19.0063 352.597 20.1302 357.792 23.7337C364.764 29.9751 367.041 37.6641 365.017 46.184C362.443 57.0141 354.601 61.9126 343.485 62.3849C346.394 67.3764 349.065 72.0295 351.802 76.6447C357.364 86.0259 362.561 95.6288 368.418 104.727C366.827 104.727 364.859 104.727 362.892 104.727ZM328.969 59.5789C333.758 59.596 338.546 59.627 343.334 59.6265C348.038 59.6259 351.461 57.4065 353.7 53.39C357.978 45.7162 358.064 37.7686 354.875 29.7367C353.677 26.718 351.7 24.2389 348.296 22.7094C346.595 22.4003 344.901 21.8743 343.192 21.8245C338.787 21.696 334.376 21.7781 329.967 21.7763C328.552 21.7758 327.137 21.7762 325.666 21.7762C325.666 34.5687 325.666 47.0251 325.666 59.517C326.732 59.517 327.633 59.517 328.969 59.5789Z" fill="var(--fill-0, #FEFDFD)"/>
<path id="Vector_4" d="M3.34525 104.313C2.39373 104.201 1.44219 104.089 0 103.92C5.02503 101 5.14227 95.9158 6.57493 91.6117C11.4549 76.9509 16.0681 62.202 20.7976 47.4913C23.7189 38.405 26.6536 29.3229 29.6107 20.2482C30.3852 17.8715 31.5195 17.6024 33.3189 19.6191C41.4057 44.9412 49.4314 69.9303 57.4524 94.9209C58.479 98.1194 59.1199 101.513 62.4373 103.62C58.2805 103.847 54.5129 104.053 50.7453 104.258C49.7971 104.162 48.8489 104.066 47.1146 103.89C52.3095 101.208 51.136 97.6769 49.8376 93.8906C46.8904 85.2961 44.1581 76.6283 41.2417 67.7013C40.4786 67.0478 39.8161 66.3753 39.1453 66.3668C32.7597 66.2864 26.3717 66.3797 19.9867 66.2775C18.2908 66.2503 17.6172 66.8751 17.1324 68.4145C14.2176 77.6708 11.2627 86.9156 8.19056 96.1209C7.3454 98.6533 8.02322 100.544 9.78342 102.278C10.2314 102.719 10.7003 103.139 11.1998 103.606C8.45296 103.853 5.89911 104.083 3.34525 104.313ZM22.2869 63.6854C28.1175 63.6854 33.9481 63.6854 40.0285 63.6854C39.7606 62.7304 39.5826 62.0126 39.3584 61.3095C37.0578 54.0945 34.7654 46.8767 32.429 39.6732C32.0206 38.4142 31.4186 37.2177 30.9494 35.6336C30.559 34.0425 30.1686 32.4514 29.7783 30.8604C29.5949 30.8588 29.4116 30.8572 29.2283 30.8556C25.7371 41.7073 22.2459 52.5591 18.6893 63.614C19.9329 63.614 20.8924 63.614 22.2869 63.6854Z" fill="var(--fill-0, #FDFCFA)"/>
<path id="Vector_5" d="M287.773 105.058C286.776 104.916 285.78 104.775 284.783 104.633C288.574 101.432 288.742 100.848 287.167 95.9405C284.446 87.4625 281.711 78.9892 278.994 70.51C278.742 69.723 278.58 68.9072 278.226 67.8245C277.897 67.4549 277.718 67.3658 277.326 67.2472C269.791 67.2644 262.47 67.3109 254.998 67.4271C251.503 77.7108 248.119 87.9128 244.877 98.1595C244.584 99.0851 244.962 100.435 245.468 101.345C246.132 102.541 247.232 103.496 248.145 104.553C245.674 104.714 243.203 104.876 240.732 105.039C239.844 104.878 238.957 104.717 237.969 104.539C242.293 100.126 242.87 94.0736 244.729 88.6119C248.954 76.1991 252.855 63.6767 256.878 51.1955C260.133 41.0954 263.373 30.9905 266.62 20.8876C267.25 18.9247 268.118 18.675 270.257 20.1832C270.601 21.4385 270.857 22.3787 271.154 23.3055C279.003 47.7337 286.861 72.1586 294.7 96.59C295.64 99.5216 296.373 102.543 299.216 104.517C298.17 104.72 297.284 104.693 296.401 104.725C293.763 104.821 291.126 104.94 288.37 105.026C288.091 105.022 287.932 105.04 287.773 105.058ZM259.159 64.5883C265.033 64.5883 270.906 64.5883 276.917 64.5883C276.833 63.986 276.833 63.6872 276.747 63.4154C274.06 54.9201 271.37 46.4256 268.652 37.94C268.526 37.5451 268.141 37.2326 267.897 36.5085C267.509 34.8456 267.121 33.1827 266.733 31.5197C266.552 31.5555 266.372 31.5913 266.191 31.627C262.696 42.5384 259.201 53.4497 255.65 64.5357C256.933 64.5357 257.828 64.5357 259.159 64.5883Z" fill="var(--fill-0, #FDFCFA)"/>
<path id="Vector_6" d="M134.813 105.164C138.726 105.054 142.581 105.054 146.436 105.054C146.61 104.859 146.784 104.663 146.958 104.468C142.165 101.805 142.804 97.4339 142.806 93.2434C142.817 71.1411 142.808 49.0388 142.815 26.9364C142.816 23.0324 144.105 20.9973 147.253 20.0463C148.21 20.134 149.005 20.2532 150.505 20.4781C145.48 22.8561 145.611 26.9111 145.617 30.9904C145.647 52.7986 145.673 74.607 145.592 96.415C145.577 100.211 146.341 103.443 150.362 105.948C144.786 105.948 139.9 105.952 135.014 105.92C134.926 105.92 134.841 105.499 134.813 105.164Z" fill="var(--fill-0, #B78569)"/>
<path id="Vector_7" d="M362.886 104.906C364.859 104.727 366.826 104.727 368.418 104.727C362.56 95.6286 357.364 86.0258 351.802 76.6445C349.065 72.0294 346.393 67.3762 343.485 62.3848C354.601 61.9125 362.442 57.0139 365.016 46.1839C367.041 37.664 364.764 29.975 357.893 23.8533C359.264 24.4932 360.908 25.0319 362.039 26.1073C371.794 35.3821 370.683 52.0822 359.571 59.6847C356.816 61.5697 353.141 62.1367 349.861 63.228C348.967 63.5254 347.974 63.5259 346.623 63.7209C348.826 67.5101 350.837 70.9614 352.84 74.4171C358.013 83.3397 363.151 92.2829 368.383 101.171C369.351 102.815 370.694 104.24 372 105.942C369.304 105.942 366.541 105.969 363.78 105.905C363.474 105.898 363.18 105.371 362.886 104.906Z" fill="var(--fill-0, #B9886D)"/>
<path id="Vector_8" d="M50.7232 104.396C54.5133 104.053 58.281 103.847 62.4377 103.62C59.1203 101.514 58.4794 98.1196 57.4528 94.9211C49.4318 69.9305 41.4062 44.9414 33.3745 19.7761C35.3855 19.1422 36.0872 20.2207 36.6524 21.9898C44.6676 47.078 52.7504 72.1448 60.8143 97.2175C61.7348 100.08 62.4662 103.046 65.2277 105.051C60.4826 105.051 55.7374 105.055 50.9924 105.03C50.8943 105.029 50.7979 104.706 50.7232 104.396Z" fill="var(--fill-0, #B9876C)"/>
<path id="Vector_9" d="M288.49 105.05C291.127 104.94 293.764 104.821 296.402 104.725C297.285 104.693 298.171 104.72 299.217 104.517C296.374 102.543 295.641 99.5218 294.701 96.5902C286.862 72.1588 279.003 47.7339 271.155 23.3057C270.857 22.3789 270.602 21.4387 270.346 20.3408C272.231 19.8974 272.998 20.8306 273.546 22.5473C281.816 48.4437 290.125 74.3279 298.532 100.181C299.089 101.894 300.503 103.33 301.611 105.138C301.699 105.544 301.695 105.707 301.692 105.869C297.429 105.889 293.167 105.908 288.691 105.795C288.482 105.458 288.486 105.254 288.49 105.05Z" fill="var(--fill-0, #B9886D)"/>
<path id="Vector_10" d="M111.014 91.0878C111.901 87.9387 112.797 84.8198 113.986 81.8163C117.189 73.7227 120.554 65.6931 123.785 57.6104C127.47 48.3924 131.079 39.1443 134.723 29.9101C134.912 29.4312 135.12 28.9598 135.32 28.4849C135.564 28.511 135.807 28.5371 136.051 28.5631C135.854 31.3189 135.656 34.0746 135.428 37.0127C134.401 39.3616 133.302 41.4874 132.426 43.7009C126.219 59.3873 120.059 75.0922 113.877 90.7888C113.504 91.737 113.078 92.6647 112.497 94.0195C111.904 92.7595 111.53 91.9651 111.014 91.0878Z" fill="var(--fill-0, #BA896D)"/>
<path id="Vector_11" d="M87.9574 103.83C85.3601 102.375 84.8354 99.9887 84.8389 97.2619C84.8655 76.7383 84.8534 56.2147 84.8533 35.6911C84.8533 33.1207 84.8534 30.5503 84.8534 27.9799C85.0692 27.9214 85.2851 27.8628 85.501 27.8042C86.2622 30.5278 87.0235 33.2514 87.7999 36.1613C87.7463 37.2469 87.6183 38.1462 87.6177 39.0456C87.6059 58.5505 87.5679 78.0557 87.6706 97.5601C87.6809 99.5128 88.5623 101.461 88.9001 103.587C88.493 103.785 88.2252 103.808 87.9574 103.83Z" fill="var(--fill-0, #BA896D)"/>
<path id="Vector_12" d="M317.36 105.155C321.308 105.041 325.211 105.041 329.114 105.041C329.201 104.811 329.288 104.58 329.375 104.35C325.89 102.053 325.405 98.7096 325.454 94.9685C325.584 85.0364 325.498 75.1016 325.498 65.1679C325.498 64.3437 325.498 63.5195 325.498 62.3699C328.817 62.3699 331.971 62.3463 335.124 62.412C335.393 62.4176 335.649 63.0178 335.907 63.5298C334.08 63.6839 332.256 63.6863 330.435 63.6042C329.088 63.5435 328.533 64.0595 328.538 65.4485C328.572 76.6677 328.535 87.8872 328.582 99.1063C328.594 101.913 330.238 103.894 332.792 105.666C331.943 105.823 331.485 105.98 331.027 105.982C326.921 106.002 322.814 106.017 318.709 105.962C318.241 105.956 317.779 105.511 317.36 105.155Z" fill="var(--fill-0, #BB8C71)"/>
<path id="Vector_13" d="M3.39691 104.473C5.89927 104.082 8.45312 103.853 11.2 103.605C10.7005 103.138 10.2316 102.718 9.78359 102.277C8.02338 100.543 7.34557 98.6525 8.19073 96.1201C11.2629 86.9148 14.2177 77.67 17.1326 68.4137C17.6173 66.8743 18.291 66.2495 19.9869 66.2767C26.3719 66.3789 32.7599 66.2856 39.1455 66.3661C39.8163 66.3745 40.4787 67.047 41.1016 67.6085C34.6761 67.7631 28.2936 67.6768 21.9127 67.7455C21.2677 67.7524 20.265 68.5734 20.0486 69.2222C16.8842 78.7108 13.802 88.2269 10.7574 97.7547C9.97601 100.2 11.4149 101.954 12.9664 103.58C13.3604 103.993 13.8859 104.281 14.351 104.626C14.3177 104.842 14.2844 105.057 14.2512 105.273C10.6502 105.059 7.04932 104.846 3.39691 104.473Z" fill="var(--fill-0, #BA896D)"/>
<path id="Vector_14" d="M113.117 75.4799C112.968 76.8061 112.683 78.0366 112.26 79.8605C111.746 78.8069 111.463 78.3317 111.273 77.8219C104.232 58.93 97.1984 40.035 90.1685 21.1388C90.0909 20.9302 90.0727 20.6997 90.0407 20.3169C91.7656 19.94 92.607 20.7282 93.2017 22.3411C99.5473 39.5495 105.965 56.7315 112.367 73.9194C112.551 74.4151 112.775 74.8962 113.117 75.4799Z" fill="var(--fill-0, #B9876C)"/>
<path id="Vector_15" d="M193.949 61.7903C191.596 61.3981 190.416 60.3897 189.145 57.5887C190.045 57.5473 190.825 57.5272 191.602 57.4731C195.148 57.2261 198.782 57.3749 202.221 56.6331C209.641 55.0331 214.793 50.4266 216.643 43.0598C218.561 35.4195 216.082 28.8902 209.985 23.8017C209.694 23.5591 209.406 23.3134 209.057 22.9255C213.078 23.3862 219.475 31.1066 220.065 37.1436C221.371 50.5129 210.888 58.4266 199.917 58.6725C197.437 58.7281 194.953 58.6807 191.904 58.6807C192.77 59.9705 193.331 60.8069 193.949 61.7903Z" fill="var(--fill-0, #B9886D)"/>
<path id="Vector_16" d="M202.659 104.766C203.859 104.599 205.066 104.471 206.257 104.257C214.678 102.743 220.269 97.9337 222.496 89.6946C224.763 81.3071 222.464 74.0332 216.241 67.9849C215.923 67.6756 215.492 67.4822 215.072 67.0881C216.347 67.5885 217.877 67.9919 218.945 68.9221C226.01 75.0721 228.243 84.7892 224.698 93.3168C221.168 101.808 213.245 106.415 202.845 105.73C202.652 105.289 202.656 105.028 202.659 104.766Z" fill="var(--fill-0, #BB8C71)"/>
<path id="Vector_17" d="M240.675 105.152C243.204 104.876 245.675 104.714 248.146 104.553C247.233 103.496 246.133 102.541 245.468 101.346C244.963 100.435 244.585 99.0854 244.877 98.1598C248.119 87.9131 251.503 77.7111 255.115 67.5377C256.07 67.8188 256.758 68.0592 257.446 68.2996C254.578 77.299 251.909 86.3687 248.754 95.2673C247.255 99.4978 247.139 102.889 251.158 105.869C247.659 105.869 244.159 105.869 240.66 105.844C240.645 105.844 240.632 105.466 240.675 105.152ZM241.3 105.347L241.212 105.291C241.212 105.291 241.221 105.403 241.3 105.347Z" fill="var(--fill-0, #BB8B6F)"/>
<path id="Vector_18" d="M25.6509 11.452C24.6937 11.3646 23.7365 11.2772 22.3718 11.1526C24.1936 7.53829 25.7972 4.13526 27.6175 0.851569C28.3746 -0.514275 33.2585 -0.182193 34.7441 1.45491C36.3527 4.78322 37.8341 7.81104 39.3553 10.9203C38.685 11.1091 38.2565 11.2298 37.8279 11.3506C35.9851 11.6762 34.8895 10.8734 34.2788 9.15317C34.0103 8.39655 33.5008 7.72493 32.9614 6.76972C32.3379 5.411 31.8537 4.29729 31.1532 2.68599C29.8535 5.27025 28.9007 7.37179 27.7478 9.35788C27.2689 10.1829 26.3627 10.7614 25.6509 11.452Z" fill="var(--fill-0, #FDFBF9)"/>
<path id="Vector_19" d="M202.447 104.746C202.655 105.028 202.652 105.289 202.638 105.679C191.846 105.83 181.065 105.853 170.064 105.736C169.828 105.45 169.822 105.304 169.826 105.157C169.826 105.157 169.903 105.001 169.921 104.917C180.704 104.796 191.469 104.761 202.447 104.746Z" fill="var(--fill-0, #B0795D)"/>
<path id="Vector_20" d="M25.6805 11.626C26.3634 10.7609 27.2695 10.1824 27.7484 9.3574C28.9013 7.3713 29.8541 5.26977 31.1538 2.68551C31.8544 4.29681 32.3386 5.41052 32.8238 6.68848C32.1939 7.95706 31.5252 9.04187 30.94 10.1697C29.684 12.59 28.4918 12.9778 25.6805 11.626Z" fill="var(--fill-0, #B78569)"/>
<path id="Vector_21" d="M37.8998 11.5203C38.2569 11.2288 38.6854 11.1081 39.3557 10.9193C37.8345 7.81005 36.3532 4.78223 34.8363 1.60536C36.4751 1.0587 37.4346 1.73556 38.1119 3.30371C39.3525 6.17608 40.7699 8.97258 42.1136 11.8007C42.0086 12.0159 41.9036 12.2312 41.7986 12.4464C40.5228 12.1946 39.247 11.9428 37.8998 11.5203Z" fill="var(--fill-0, #B9876C)"/>
<path id="Vector_22" d="M257.658 68.282C256.757 68.0579 256.069 67.8175 255.264 67.4668C262.47 67.3099 269.791 67.2634 277.352 67.4264C277.622 67.7534 277.653 67.8707 277.684 67.988C272.828 68.0748 267.972 68.1682 263.116 68.2449C261.368 68.2725 259.619 68.26 257.658 68.282Z" fill="var(--fill-0, #B0795D)"/>
<path id="Vector_23" d="M88.0493 103.962C88.2257 103.808 88.4935 103.786 88.963 103.747C89.2806 103.782 89.3749 103.859 89.478 104.221C89.505 104.94 89.5018 105.398 89.4985 105.857C86.9979 105.9 84.4971 105.967 81.9966 105.956C81.665 105.955 81.3351 105.556 81.0212 105.194C83.3937 104.909 85.7493 104.772 88.1043 104.626C88.1531 104.623 88.2364 104.518 88.233 104.465C88.2249 104.34 88.1741 104.217 88.0493 103.962Z" fill="var(--fill-0, #BB8C71)"/>
<path id="Vector_24" d="M89.6465 105.886C89.5013 105.398 89.5045 104.939 89.5165 104.305C89.8006 104.332 90.0759 104.535 90.3968 105.001C90.4269 105.463 90.4114 105.661 90.3958 105.859C90.1956 105.878 89.9953 105.896 89.6465 105.886Z" fill="var(--fill-0, #BA896D)"/>
<path id="Vector_25" d="M90.537 105.9C90.412 105.662 90.4275 105.464 90.4614 105.115C90.8962 105.126 91.3126 105.287 92.306 105.672C91.389 105.823 91.0333 105.881 90.537 105.9Z" fill="var(--fill-0, #BB8C71)"/>
<path id="Vector_26" d="M288.37 105.025C288.485 105.253 288.481 105.457 288.48 105.761C288.232 105.669 287.981 105.476 287.752 105.17C287.933 105.039 288.092 105.021 288.37 105.025Z" fill="var(--fill-0, #BB8C71)"/>
<path id="Vector_27" d="M169.696 105.169C169.823 105.304 169.829 105.45 169.858 105.704C169.549 105.775 169.229 105.738 168.909 105.702C169.128 105.528 169.346 105.354 169.696 105.169Z" fill="var(--fill-0, #BB8C71)"/>
<path id="Vector_28" d="M301.812 105.892C301.695 105.706 301.699 105.543 301.703 105.258C301.914 105.28 302.124 105.426 302.334 105.571C302.2 105.686 302.066 105.8 301.812 105.892Z" fill="var(--fill-0, #BB8C71)"/>
<path id="Vector_29" d="M194.316 62.2056C194.23 62.2622 194.114 62.2001 194 61.9956C194.077 61.9697 194.172 62.0476 194.316 62.2056Z" fill="var(--fill-0, #B9886D)"/>
<path id="Vector_30" d="M277.824 67.9559C277.653 67.8723 277.623 67.755 277.566 67.4575C277.718 67.3664 277.897 67.4556 278.153 67.6799C278.142 67.8508 278.053 67.8865 277.824 67.9559Z" fill="var(--fill-0, #BB8B6F)"/>
<path id="Vector_31" d="M186.52 58.4523C185.185 58.6391 183.809 58.7852 182.456 58.6661C180.591 58.502 180.153 59.3107 180.158 61.0338C180.203 74.5896 180.17 88.1456 180.133 101.886C179.221 102.141 178.337 102.213 177.277 102.299C177.277 87.3079 177.277 72.5297 177.277 57.5036C180.086 57.5036 182.8 57.4766 185.512 57.5384C185.843 57.546 186.163 58.0301 186.52 58.4523Z" fill="var(--fill-0, #B78569)"/>
<path id="Vector_32" d="M199.403 22.634C194.045 22.7952 188.575 22.8149 183.106 22.8302C179.939 22.839 179.941 22.8358 179.932 25.9048C179.906 35.4469 179.878 44.9891 179.796 54.7266C178.989 54.9221 178.235 54.9221 177.3 54.9221C177.3 43.9005 177.3 32.9851 177.3 21.7908C182.193 21.7908 187.029 21.7153 191.86 21.8221C194.341 21.877 196.815 22.2574 199.403 22.634Z" fill="var(--fill-0, #B68368)"/>
<path id="Vector_33" d="M206.097 66.4389C202.383 66.8314 198.528 66.9995 194.732 65.2894C198.387 65.5904 202.165 65.9771 206.097 66.4389Z" fill="var(--fill-0, #B9876C)"/>
<path id="Vector_34" d="M200.18 22.8272C200.084 22.8622 199.843 22.8862 199.531 22.8319C199.65 22.7744 199.843 22.7953 200.18 22.8272Z" fill="var(--fill-0, #B68368)"/>
<path id="Vector_35" d="M348.447 22.7888C344.906 22.9497 341.214 23.0494 337.521 23.1071C335.249 23.1426 332.969 23.224 330.705 23.0816C328.711 22.9561 328.524 23.9985 328.529 25.5733C328.562 36.7514 328.54 47.9297 328.535 59.3127C327.633 59.5174 326.732 59.5174 325.666 59.5174C325.666 47.0255 325.666 34.5691 325.666 21.7766C327.138 21.7766 328.553 21.7762 329.968 21.7767C334.376 21.7784 338.788 21.6964 343.193 21.8248C344.901 21.8746 346.595 22.4007 348.447 22.7888Z" fill="var(--fill-0, #BA8B6F)"/>
<path id="Vector_36" d="M30.928 35.8132C30.4283 37.1727 29.8742 38.3286 29.4844 39.5371C26.934 47.4437 24.4191 55.3616 21.8724 63.4451C20.8927 63.6143 19.9333 63.6143 18.6897 63.6143C22.2462 52.5593 25.7375 41.7076 29.2287 30.8559C29.412 30.8575 29.5953 30.8591 29.7786 30.8607C30.169 32.4517 30.5594 34.0428 30.928 35.8132Z" fill="var(--fill-0, #BA896D)"/>
<path id="Vector_37" d="M267.887 36.6941C266.575 40.5799 265.214 44.2594 263.986 47.9828C262.207 53.3759 260.526 58.8006 258.763 64.3733C257.828 64.5347 256.933 64.5347 255.65 64.5347C259.201 53.4488 262.696 42.5374 266.191 31.6261C266.372 31.5903 266.552 31.5546 266.733 31.5188C267.121 33.1817 267.509 34.8446 267.887 36.6941Z" fill="var(--fill-0, #BB8B6F)"/>
<path id="Vector_38" d="M241.261 105.377C241.221 105.405 241.212 105.291 241.212 105.291C241.212 105.291 241.302 105.348 241.261 105.377Z" fill="var(--fill-0, #E2D2B0)"/>
</g>
</svg>
