<svg preserveAspectRatio="none" width="100%" height="100%" overflow="visible" style="display: block;" viewBox="0 0 50 50" fill="none" xmlns="http://www.w3.org/2000/svg">
<g id="Expand">
<path id="Vector" d="M8.31706 6.65039C8.07868 6.65044 7.84309 6.70162 7.62618 6.80048C7.40927 6.89933 7.21609 7.04356 7.05967 7.22343C6.90324 7.4033 6.78722 7.61463 6.71943 7.84316C6.65163 8.07169 6.63364 8.3121 6.66667 8.54818V16.6667C6.66354 16.8875 6.70435 17.1068 6.7867 17.3117C6.86906 17.5167 6.99133 17.7032 7.1464 17.8605C7.30147 18.0178 7.48626 18.1427 7.69002 18.2279C7.89379 18.3132 8.11246 18.3571 8.33333 18.3571C8.55421 18.3571 8.77288 18.3132 8.97664 18.2279C9.18041 18.1427 9.36519 18.0178 9.52027 17.8605C9.67534 17.7032 9.79761 17.5167 9.87997 17.3117C9.96232 17.1068 10.0031 16.8875 10 16.6667V12.3568L17.1549 19.5117C17.3085 19.6717 17.4925 19.7994 17.696 19.8874C17.8996 19.9753 18.1186 20.0218 18.3404 20.0241C18.5621 20.0263 18.7821 19.9843 18.9873 19.9005C19.1926 19.8167 19.3792 19.6927 19.536 19.536C19.6928 19.3792 19.8167 19.1926 19.9005 18.9873C19.9843 18.782 20.0263 18.5621 20.0241 18.3404C20.0218 18.1186 19.9753 17.8996 19.8874 17.696C19.7994 17.4925 19.6717 17.3085 19.5117 17.1549L12.3568 10H16.6667C16.8875 10.0031 17.1068 9.96232 17.3117 9.87996C17.5167 9.79761 17.7032 9.67534 17.8605 9.52027C18.0178 9.36519 18.1427 9.1804 18.2279 8.97664C18.3132 8.77288 18.3571 8.55421 18.3571 8.33333C18.3571 8.11246 18.3132 7.89379 18.2279 7.69002C18.1427 7.48626 18.0178 7.30147 17.8605 7.1464C17.7032 6.99133 17.5167 6.86906 17.3117 6.7867C17.1068 6.70435 16.8875 6.66354 16.6667 6.66667H8.52865C8.45853 6.65675 8.38786 6.65132 8.31706 6.65039ZM41.6341 6.65039C41.572 6.65235 41.5101 6.65779 41.4486 6.66667H33.3333C33.1125 6.66354 32.8932 6.70435 32.6883 6.7867C32.4833 6.86906 32.2968 6.99133 32.1395 7.1464C31.9822 7.30147 31.8573 7.48626 31.7721 7.69002C31.6868 7.89379 31.6429 8.11246 31.6429 8.33333C31.6429 8.55421 31.6868 8.77288 31.7721 8.97664C31.8573 9.1804 31.9822 9.36519 32.1395 9.52027C32.2968 9.67534 32.4833 9.79761 32.6883 9.87996C32.8932 9.96232 33.1125 10.0031 33.3333 10H37.6432L30.4883 17.1549C30.3283 17.3085 30.2006 17.4925 30.1126 17.696C30.0247 17.8996 29.9782 18.1186 29.9759 18.3404C29.9737 18.5621 30.0157 18.782 30.0995 18.9873C30.1833 19.1926 30.3073 19.3792 30.464 19.536C30.6208 19.6927 30.8074 19.8167 31.0127 19.9005C31.218 19.9843 31.4379 20.0263 31.6596 20.0241C31.8814 20.0218 32.1004 19.9753 32.304 19.8874C32.5075 19.7994 32.6915 19.6717 32.8451 19.5117L40 12.3568V16.6667C39.9969 16.8875 40.0377 17.1068 40.12 17.3117C40.2024 17.5167 40.3247 17.7032 40.4797 17.8605C40.6348 18.0178 40.8196 18.1427 41.0234 18.2279C41.2271 18.3132 41.4458 18.3571 41.6667 18.3571C41.8875 18.3571 42.1062 18.3132 42.31 18.2279C42.5137 18.1427 42.6985 18.0178 42.8536 17.8605C43.0087 17.7032 43.1309 17.5167 43.2133 17.3117C43.2957 17.1068 43.3365 16.8875 43.3333 16.6667V8.54492C43.3665 8.30496 43.347 8.06066 43.2762 7.82901C43.2053 7.59736 43.0848 7.38393 42.9231 7.2036C42.7613 7.02326 42.5622 6.88035 42.3396 6.78481C42.117 6.68927 41.8763 6.6434 41.6341 6.65039ZM18.3008 29.9837C17.8678 29.9966 17.4568 30.1776 17.1549 30.4883L10 37.6432V33.3333C10.0031 33.1103 9.96133 32.889 9.87731 32.6825C9.79328 32.4759 9.66866 32.2883 9.51082 32.1307C9.35298 31.9732 9.16513 31.8489 8.9584 31.7653C8.75168 31.6817 8.53027 31.6404 8.30729 31.6439C7.86583 31.6508 7.44515 31.8325 7.13756 32.1493C6.82998 32.466 6.66062 32.8919 6.66667 33.3333V41.4128C6.62251 41.6749 6.64168 41.9437 6.72258 42.1969C6.80348 42.4501 6.94375 42.6803 7.13171 42.8683C7.31967 43.0562 7.54985 43.1965 7.80305 43.2774C8.05625 43.3583 8.32512 43.3775 8.58724 43.3333H16.6667C16.8875 43.3365 17.1068 43.2956 17.3117 43.2133C17.5167 43.1309 17.7032 43.0087 17.8605 42.8536C18.0178 42.6985 18.1427 42.5137 18.2279 42.31C18.3132 42.1062 18.3571 41.8875 18.3571 41.6667C18.3571 41.4458 18.3132 41.2271 18.2279 41.0234C18.1427 40.8196 18.0178 40.6348 17.8605 40.4797C17.7032 40.3247 17.5167 40.2024 17.3117 40.12C17.1068 40.0377 16.8875 39.9969 16.6667 40H12.3568L19.5117 32.845C19.7526 32.6109 19.9171 32.3095 19.9837 31.9803C20.0503 31.6511 20.0158 31.3095 19.8849 31.0002C19.754 30.6909 19.5328 30.4283 19.2501 30.247C18.9674 30.0656 18.6365 29.9738 18.3008 29.9837ZM31.6504 29.9837C31.3188 29.9838 30.9948 30.0828 30.7198 30.268C30.4448 30.4532 30.2313 30.7162 30.1065 31.0233C29.9817 31.3305 29.9514 31.6679 30.0194 31.9924C30.0874 32.317 30.2507 32.6138 30.4883 32.845L37.6432 40H33.3333C33.1125 39.9969 32.8932 40.0377 32.6883 40.12C32.4833 40.2024 32.2968 40.3247 32.1395 40.4797C31.9822 40.6348 31.8573 40.8196 31.7721 41.0234C31.6868 41.2271 31.6429 41.4458 31.6429 41.6667C31.6429 41.8875 31.6868 42.1062 31.7721 42.31C31.8573 42.5137 31.9822 42.6985 32.1395 42.8536C32.2968 43.0087 32.4833 43.1309 32.6883 43.2133C32.8932 43.2956 33.1125 43.3365 33.3333 43.3333H41.4128C41.6749 43.3775 41.9438 43.3583 42.197 43.2774C42.4502 43.1965 42.6803 43.0562 42.8683 42.8683C43.0562 42.6803 43.1965 42.4501 43.2774 42.1969C43.3583 41.9437 43.3775 41.6749 43.3333 41.4128V33.3333C43.3364 33.1103 43.2947 32.889 43.2106 32.6825C43.1266 32.4759 43.002 32.2883 42.8441 32.1307C42.6863 31.9732 42.4985 31.8489 42.2917 31.7653C42.085 31.6817 41.8636 31.6404 41.6406 31.6439C41.1992 31.6508 40.7785 31.8325 40.4709 32.1493C40.1633 32.466 39.994 32.8919 40 33.3333V37.6432L32.8451 30.4883C32.6897 30.3286 32.504 30.2017 32.2988 30.1151C32.0936 30.0284 31.8731 29.9837 31.6504 29.9837Z" fill="var(--fill-0, white)"/>
</g>
</svg>
