<svg preserveAspectRatio="none" width="100%" height="100%" overflow="visible" style="display: block;" viewBox="0 0 33 33" fill="none" xmlns="http://www.w3.org/2000/svg">
<g id="WhatsApp">
<path id="Vector" d="M16.5 3.3C9.2103 3.3 3.3 9.2103 3.3 16.5C3.3 18.9763 3.99558 21.2851 5.18203 23.2654L3.41816 29.7L9.99023 27.9748C11.9123 29.0676 14.1311 29.7 16.5 29.7C23.7897 29.7 29.7 23.7897 29.7 16.5C29.7 9.2103 23.7897 3.3 16.5 3.3ZM11.9818 10.3426C12.1963 10.3426 12.4167 10.3413 12.607 10.3512C12.8424 10.3567 13.0986 10.3739 13.3439 10.9162C13.6354 11.5608 14.2702 13.1779 14.3516 13.3418C14.433 13.5057 14.4906 13.6988 14.3773 13.9133C14.2695 14.1333 14.2135 14.2664 14.0551 14.4611C13.8912 14.6503 13.7116 14.8853 13.5631 15.0283C13.3992 15.1922 13.2299 15.3719 13.4191 15.6986C13.6083 16.0253 14.2654 17.0963 15.2367 17.9609C16.4852 19.0763 17.5386 19.4191 17.8664 19.583C18.1942 19.7469 18.384 19.7214 18.5732 19.5014C18.7679 19.2869 19.3909 18.5508 19.6109 18.223C19.8254 17.8952 20.0444 17.952 20.3414 18.0598C20.6428 18.1676 22.2501 18.9593 22.5779 19.1232C22.9057 19.2871 23.1206 19.3683 23.2031 19.5014C23.2878 19.6389 23.2879 20.2934 23.0162 21.0568C22.7445 21.8191 21.4103 22.5563 20.8119 22.608C20.208 22.6641 19.6444 22.8795 16.8867 21.7938C13.5603 20.4837 11.4625 17.0766 11.2986 16.8566C11.1347 16.6421 9.9666 15.0853 9.9666 13.4793C9.9666 11.8678 10.8115 11.0786 11.1074 10.7508C11.4088 10.423 11.7618 10.3426 11.9818 10.3426Z" fill="var(--fill-0, #3D9C5A)"/>
</g>
</svg>
