<svg preserveAspectRatio="none" width="100%" height="100%" overflow="visible" style="display: block;" viewBox="0 0 43 43" fill="none" xmlns="http://www.w3.org/2000/svg">
<g id="Circled Right">
<path id="Vector" d="M21.5 1.72C10.5854 1.72 1.72 10.5854 1.72 21.5C1.72 32.4146 10.5854 41.28 21.5 41.28C32.4146 41.28 41.28 32.4146 41.28 21.5C41.28 10.5854 32.4146 1.72 21.5 1.72ZM21.5 3.44C31.4841 3.44 39.56 11.5159 39.56 21.5C39.56 31.4841 31.4841 39.56 21.5 39.56C11.5159 39.56 3.44 31.4841 3.44 21.5C3.44 11.5159 11.5159 3.44 21.5 3.44ZM25.8 15.48V20.64H10.32V22.36H25.8V27.52L31.82 21.5L25.8 15.48Z" fill="var(--fill-0, black)"/>
</g>
</svg>
