<svg preserveAspectRatio="none" width="100%" height="100%" overflow="visible" style="display: block;" viewBox="0 0 25 25" fill="none" xmlns="http://www.w3.org/2000/svg">
<g id="LinkedIn">
<path id="Vector" d="M20 3.33333H5C4.07917 3.33333 3.33333 4.07917 3.33333 5V20C3.33333 20.9208 4.07917 21.6667 5 21.6667H20C20.9208 21.6667 21.6667 20.9208 21.6667 20V5C21.6667 4.07917 20.9208 3.33333 20 3.33333ZM9.12833 18.3333H6.67V10.4233H9.12833V18.3333ZM7.87417 9.2925C7.08167 9.2925 6.44083 8.65 6.44083 7.85917C6.44083 7.06833 7.0825 6.42667 7.87417 6.42667C8.66417 6.42667 9.30667 7.06917 9.30667 7.85917C9.30667 8.65 8.66417 9.2925 7.87417 9.2925ZM18.3367 18.3333H15.88V14.4867C15.88 13.5692 15.8633 12.3892 14.6025 12.3892C13.3233 12.3892 13.1267 13.3883 13.1267 14.42V18.3333H10.67V10.4233H13.0283V11.5042H13.0617C13.39 10.8825 14.1917 10.2267 15.3875 10.2267C17.8767 10.2267 18.3367 11.865 18.3367 13.995V18.3333Z" fill="var(--fill-0, white)"/>
</g>
</svg>
