<svg preserveAspectRatio="none" width="100%" height="100%" overflow="visible" style="display: block;" viewBox="0 0 60 60" fill="none" xmlns="http://www.w3.org/2000/svg">
<g id="Circled Right">
<path id="Vector" d="M30 2.4C14.7703 2.4 2.4 14.7703 2.4 30C2.4 45.2297 14.7703 57.6 30 57.6C45.2297 57.6 57.6 45.2297 57.6 30C57.6 14.7703 45.2297 2.4 30 2.4ZM30 4.8C43.9313 4.8 55.2 16.0688 55.2 30C55.2 43.9313 43.9313 55.2 30 55.2C16.0688 55.2 4.8 43.9313 4.8 30C4.8 16.0688 16.0688 4.8 30 4.8ZM36 21.6V28.8H14.4V31.2H36V38.4L44.4 30L36 21.6Z" fill="var(--fill-0, white)"/>
</g>
</svg>
